<svg width="515" height="195" viewBox="0 0 515 195" fill="none" xmlns="http://www.w3.org/2000/svg">
<g clip-path="url(#clip0_289_201)">
<path d="M295.469 13.7884V0L341.089 18.2907V29.5465L295.469 47.8372V33.7674L322.105 23.9186L295.469 13.7884Z" fill="#A100FF"/>
<path d="M43.5679 121C33.9339 121 26 116.216 26 105.523V104.961C26 92.0163 37.3341 87.514 51.2185 87.514H57.7356V84.9815C57.7356 79.6349 55.4688 76.5396 49.8017 76.5396C44.7013 76.5396 42.1512 79.3535 41.8678 83.2931H27.7001C28.8335 71.4745 38.1842 65.8466 50.6518 65.8466C63.4027 65.8466 72.7534 71.1931 72.7534 84.4187V119.874H58.3023V113.684C55.4688 117.623 50.6518 121 43.5679 121ZM57.7356 102.428V97.3628H51.7852C44.418 97.3628 40.7344 99.3326 40.7344 104.116V104.679C40.7344 108.337 43.0012 110.87 48.1016 110.87C53.202 110.588 57.7356 107.774 57.7356 102.428ZM106.472 121C91.7381 121 80.9706 111.995 80.9706 93.9861V93.1419C80.9706 75.1326 92.3048 65.5652 106.472 65.5652C118.657 65.5652 128.574 71.7559 129.707 85.5442H115.54C114.69 80.4791 111.856 77.1024 106.756 77.1024C100.522 77.1024 95.9884 82.1675 95.9884 92.5791V94.2675C95.9884 104.961 99.9553 109.744 106.756 109.744C111.856 109.744 115.54 106.086 116.39 100.177H129.991C129.141 112.558 120.924 121 106.472 121ZM162.01 121C147.275 121 136.508 111.995 136.508 93.9861V93.1419C136.508 75.1326 147.842 65.5652 162.01 65.5652C174.194 65.5652 184.111 71.7559 185.245 85.5442H171.077C170.227 80.4791 167.394 77.1024 162.293 77.1024C156.059 77.1024 151.526 82.1675 151.526 92.5791V94.2675C151.526 104.961 155.493 109.744 162.293 109.744C167.394 109.744 171.077 106.086 171.927 100.177H185.528C184.678 112.558 176.461 121 162.01 121ZM217.83 121C202.529 121 192.045 111.995 192.045 94.2675V93.1419C192.045 75.414 203.096 65.5652 217.547 65.5652C230.865 65.5652 241.916 72.8815 241.916 90.6094V97.0815H207.063C207.63 106.649 211.88 110.307 218.114 110.307C223.781 110.307 226.898 107.212 228.031 103.554H241.916C240.215 113.402 231.715 121 217.83 121ZM207.346 87.2326H227.181C226.898 79.3535 223.214 75.9768 217.264 75.9768C212.73 76.2582 208.48 78.7908 207.346 87.2326ZM250.983 66.9721H266.001V74.8512C268.551 69.7861 273.935 65.8466 282.152 65.8466C291.786 65.8466 298.303 71.7559 298.303 84.4187V119.874H283.285V86.6698C283.285 80.4791 280.735 77.6652 275.351 77.6652C270.251 77.6652 266.001 80.7605 266.001 87.514V119.874H250.983V66.9721ZM325.788 50.9326V66.9721H335.989V77.9466H325.788V102.991C325.788 106.93 327.488 108.9 331.172 108.9C333.439 108.9 334.856 108.619 336.272 108.056V119.593C334.572 120.156 331.455 120.719 327.772 120.719C316.154 120.719 310.771 115.372 310.771 104.679V77.9466H304.537V66.9721H310.771V57.1233L325.788 50.9326ZM392.093 119.874H377.359V111.995C374.808 117.061 369.708 121 361.774 121C352.14 121 345.056 115.091 345.056 102.709V66.9721H360.074V100.74C360.074 106.93 362.624 109.744 367.725 109.744C372.825 109.744 377.075 106.368 377.075 99.8954V66.9721H392.093V119.874ZM403.144 66.9721H418.162V76.821C421.278 69.7861 426.379 66.4094 434.313 66.4094V81.0419C424.112 81.0419 418.162 84.1373 418.162 92.8605V120.156H403.144V66.9721ZM464.632 121C449.33 121 438.846 111.995 438.846 94.2675V93.1419C438.846 75.414 449.897 65.5652 464.348 65.5652C477.666 65.5652 488.717 72.8815 488.717 90.6094V97.0815H454.148C454.714 106.649 458.965 110.307 465.198 110.307C470.865 110.307 473.982 107.212 475.116 103.554H489C486.733 113.402 478.516 121 464.632 121ZM453.864 87.2326H473.982C473.699 79.3535 470.015 75.9768 464.065 75.9768C459.531 76.2582 455.281 78.7908 453.864 87.2326Z" fill="black"/>
</g>
<path d="M124.835 184.224C124.302 184.224 123.886 184.075 123.587 183.776C123.31 183.477 123.171 183.061 123.171 182.528V162.88C123.171 162.325 123.31 161.909 123.587 161.632C123.886 161.355 124.302 161.216 124.835 161.216C125.368 161.216 125.774 161.355 126.051 161.632C126.35 161.909 126.499 162.325 126.499 162.88V171.584H126.563L136.387 162.08C136.707 161.781 137.006 161.568 137.283 161.44C137.582 161.291 137.912 161.216 138.275 161.216C138.766 161.216 139.118 161.344 139.331 161.6C139.566 161.835 139.662 162.123 139.619 162.464C139.576 162.805 139.395 163.136 139.075 163.456L128.867 173.184L128.931 171.552L139.555 181.792C139.939 182.155 140.142 182.528 140.163 182.912C140.184 183.296 140.067 183.616 139.811 183.872C139.555 184.107 139.192 184.224 138.723 184.224C138.296 184.224 137.955 184.139 137.699 183.968C137.443 183.797 137.144 183.552 136.803 183.232L126.563 173.472H126.499V182.528C126.499 183.061 126.36 183.477 126.083 183.776C125.806 184.075 125.39 184.224 124.835 184.224ZM144.981 184.224C144.469 184.224 144.075 184.085 143.797 183.808C143.52 183.509 143.381 183.104 143.381 182.592V169.792C143.381 169.259 143.52 168.853 143.797 168.576C144.075 168.299 144.459 168.16 144.949 168.16C145.461 168.16 145.845 168.299 146.101 168.576C146.379 168.853 146.517 169.259 146.517 169.792V172.288L146.165 171.712C146.635 170.517 147.371 169.621 148.373 169.024C149.376 168.405 150.528 168.096 151.829 168.096C153.067 168.096 154.091 168.331 154.901 168.8C155.733 169.248 156.352 169.941 156.757 170.88C157.163 171.797 157.365 172.96 157.365 174.368V182.592C157.365 183.104 157.227 183.509 156.949 183.808C156.672 184.085 156.277 184.224 155.765 184.224C155.232 184.224 154.827 184.085 154.549 183.808C154.272 183.509 154.133 183.104 154.133 182.592V174.56C154.133 173.216 153.867 172.235 153.333 171.616C152.821 170.997 152.011 170.688 150.901 170.688C149.6 170.688 148.555 171.093 147.765 171.904C146.997 172.715 146.613 173.803 146.613 175.168V182.592C146.613 183.68 146.069 184.224 144.981 184.224ZM168.603 184.288C167.024 184.288 165.659 183.957 164.507 183.296C163.376 182.635 162.491 181.696 161.851 180.48C161.211 179.264 160.891 177.835 160.891 176.192C160.891 174.933 161.072 173.813 161.435 172.832C161.798 171.851 162.31 171.008 162.971 170.304C163.654 169.579 164.464 169.035 165.403 168.672C166.363 168.288 167.43 168.096 168.603 168.096C170.16 168.096 171.504 168.427 172.635 169.088C173.787 169.749 174.683 170.688 175.323 171.904C175.963 173.099 176.283 174.528 176.283 176.192C176.283 177.429 176.102 178.549 175.739 179.552C175.376 180.555 174.854 181.408 174.171 182.112C173.51 182.816 172.699 183.36 171.739 183.744C170.8 184.107 169.755 184.288 168.603 184.288ZM168.603 181.792C169.478 181.792 170.246 181.579 170.907 181.152C171.568 180.725 172.08 180.096 172.443 179.264C172.827 178.432 173.019 177.408 173.019 176.192C173.019 174.357 172.614 172.971 171.803 172.032C170.992 171.093 169.926 170.624 168.603 170.624C167.707 170.624 166.928 170.837 166.267 171.264C165.606 171.669 165.083 172.288 164.699 173.12C164.336 173.952 164.155 174.976 164.155 176.192C164.155 178.005 164.56 179.392 165.371 180.352C166.182 181.312 167.259 181.792 168.603 181.792ZM185.327 184.224C184.879 184.224 184.485 184.117 184.143 183.904C183.823 183.669 183.567 183.307 183.375 182.816L178.671 170.368C178.501 169.941 178.447 169.568 178.511 169.248C178.575 168.907 178.735 168.64 178.991 168.448C179.269 168.256 179.621 168.16 180.047 168.16C180.431 168.16 180.741 168.256 180.975 168.448C181.231 168.619 181.445 168.96 181.615 169.472L185.807 181.28H185.039L189.391 169.344C189.541 168.939 189.743 168.64 189.999 168.448C190.255 168.256 190.586 168.16 190.991 168.16C191.397 168.16 191.727 168.256 191.983 168.448C192.261 168.64 192.463 168.939 192.591 169.344L196.847 181.28H196.143L200.399 169.408C200.57 168.917 200.783 168.587 201.039 168.416C201.317 168.245 201.626 168.16 201.967 168.16C202.394 168.16 202.714 168.267 202.927 168.48C203.162 168.693 203.29 168.971 203.311 169.312C203.354 169.632 203.301 169.984 203.151 170.368L198.447 182.816C198.255 183.285 197.989 183.637 197.647 183.872C197.327 184.107 196.954 184.224 196.527 184.224C196.079 184.224 195.685 184.107 195.343 183.872C195.023 183.637 194.767 183.285 194.575 182.816L190.095 170.688H191.695L187.247 182.816C187.077 183.285 186.821 183.637 186.479 183.872C186.159 184.107 185.775 184.224 185.327 184.224ZM211.718 184.288C210.054 184.288 208.795 183.808 207.942 182.848C207.11 181.867 206.694 180.459 206.694 178.624V162.848C206.694 162.315 206.833 161.909 207.11 161.632C207.387 161.355 207.782 161.216 208.294 161.216C208.806 161.216 209.201 161.355 209.478 161.632C209.777 161.909 209.926 162.315 209.926 162.848V178.432C209.926 179.499 210.139 180.299 210.566 180.832C211.014 181.344 211.654 181.6 212.486 181.6C212.678 181.6 212.849 181.6 212.998 181.6C213.147 181.579 213.297 181.557 213.446 181.536C213.702 181.515 213.883 181.589 213.99 181.76C214.097 181.909 214.15 182.229 214.15 182.72C214.15 183.168 214.054 183.52 213.862 183.776C213.67 184.011 213.361 184.16 212.934 184.224C212.742 184.245 212.539 184.256 212.326 184.256C212.113 184.277 211.91 184.288 211.718 184.288ZM223.647 184.288C221.94 184.288 220.468 183.968 219.231 183.328C218.015 182.667 217.066 181.739 216.383 180.544C215.722 179.328 215.391 177.888 215.391 176.224C215.391 174.603 215.722 173.184 216.383 171.968C217.044 170.752 217.951 169.803 219.103 169.12C220.255 168.437 221.567 168.096 223.039 168.096C224.127 168.096 225.098 168.277 225.951 168.64C226.804 168.981 227.53 169.493 228.127 170.176C228.746 170.837 229.204 171.648 229.503 172.608C229.823 173.568 229.983 174.645 229.983 175.84C229.983 176.203 229.876 176.48 229.663 176.672C229.45 176.843 229.13 176.928 228.703 176.928H217.951V174.944H227.807L227.263 175.392C227.263 174.325 227.103 173.419 226.783 172.672C226.484 171.925 226.026 171.36 225.407 170.976C224.81 170.571 224.063 170.368 223.167 170.368C222.164 170.368 221.311 170.603 220.607 171.072C219.924 171.541 219.402 172.192 219.039 173.024C218.676 173.856 218.495 174.827 218.495 175.936V176.128C218.495 178.005 218.932 179.424 219.807 180.384C220.703 181.323 221.994 181.792 223.679 181.792C224.319 181.792 224.991 181.707 225.695 181.536C226.42 181.365 227.103 181.077 227.743 180.672C228.106 180.459 228.426 180.363 228.703 180.384C229.002 180.405 229.236 180.501 229.407 180.672C229.599 180.843 229.716 181.056 229.759 181.312C229.802 181.568 229.759 181.835 229.631 182.112C229.503 182.368 229.279 182.603 228.959 182.816C228.234 183.307 227.391 183.68 226.431 183.936C225.471 184.171 224.543 184.288 223.647 184.288ZM239.458 184.288C238.093 184.288 236.888 183.968 235.842 183.328C234.818 182.667 234.018 181.728 233.442 180.512C232.866 179.275 232.578 177.835 232.578 176.192C232.578 174.507 232.866 173.067 233.442 171.872C234.018 170.677 234.818 169.749 235.842 169.088C236.888 168.427 238.093 168.096 239.458 168.096C240.824 168.096 241.997 168.437 242.978 169.12C243.981 169.781 244.653 170.677 244.994 171.808H244.642V162.848C244.642 162.315 244.781 161.909 245.058 161.632C245.336 161.355 245.73 161.216 246.242 161.216C246.754 161.216 247.149 161.355 247.426 161.632C247.725 161.909 247.874 162.315 247.874 162.848V182.592C247.874 183.104 247.736 183.509 247.458 183.808C247.181 184.085 246.786 184.224 246.274 184.224C245.762 184.224 245.368 184.085 245.09 183.808C244.813 183.509 244.674 183.104 244.674 182.592V179.776L245.026 180.48C244.685 181.632 244.013 182.56 243.01 183.264C242.029 183.947 240.845 184.288 239.458 184.288ZM240.29 181.792C241.165 181.792 241.933 181.579 242.594 181.152C243.256 180.725 243.768 180.096 244.13 179.264C244.514 178.432 244.706 177.408 244.706 176.192C244.706 174.357 244.301 172.971 243.49 172.032C242.68 171.093 241.613 170.624 240.29 170.624C239.394 170.624 238.616 170.837 237.954 171.264C237.293 171.669 236.77 172.288 236.386 173.12C236.024 173.952 235.842 174.976 235.842 176.192C235.842 178.005 236.248 179.392 237.058 180.352C237.869 181.312 238.946 181.792 240.29 181.792ZM259.485 190.048C258.333 190.048 257.213 189.931 256.125 189.696C255.058 189.461 254.087 189.077 253.213 188.544C252.893 188.373 252.679 188.16 252.573 187.904C252.466 187.669 252.434 187.424 252.477 187.168C252.541 186.912 252.658 186.688 252.829 186.496C252.999 186.304 253.202 186.176 253.437 186.112C253.693 186.048 253.959 186.091 254.237 186.24C255.175 186.752 256.061 187.093 256.893 187.264C257.746 187.456 258.535 187.552 259.261 187.552C260.754 187.552 261.874 187.168 262.621 186.4C263.367 185.653 263.741 184.544 263.741 183.072V179.808H264.029C263.709 180.981 263.037 181.909 262.013 182.592C260.989 183.275 259.805 183.616 258.461 183.616C257.053 183.616 255.826 183.296 254.781 182.656C253.735 181.995 252.925 181.088 252.349 179.936C251.773 178.763 251.485 177.397 251.485 175.84C251.485 174.667 251.645 173.611 251.965 172.672C252.306 171.733 252.775 170.923 253.373 170.24C253.991 169.557 254.727 169.035 255.581 168.672C256.455 168.288 257.415 168.096 258.461 168.096C259.826 168.096 261.01 168.437 262.013 169.12C263.037 169.803 263.698 170.731 263.997 171.904L263.677 172.448V169.792C263.677 169.259 263.815 168.853 264.093 168.576C264.391 168.299 264.786 168.16 265.277 168.16C265.789 168.16 266.183 168.299 266.461 168.576C266.738 168.853 266.877 169.259 266.877 169.792V182.688C266.877 185.12 266.247 186.955 264.989 188.192C263.73 189.429 261.895 190.048 259.485 190.048ZM259.229 181.088C260.167 181.088 260.967 180.875 261.629 180.448C262.29 180.021 262.802 179.413 263.165 178.624C263.527 177.835 263.709 176.907 263.709 175.84C263.709 174.24 263.303 172.971 262.493 172.032C261.703 171.093 260.615 170.624 259.229 170.624C258.311 170.624 257.522 170.837 256.861 171.264C256.199 171.691 255.677 172.299 255.293 173.088C254.93 173.856 254.749 174.773 254.749 175.84C254.749 177.461 255.154 178.741 255.965 179.68C256.775 180.619 257.863 181.088 259.229 181.088ZM278.741 184.288C277.034 184.288 275.562 183.968 274.325 183.328C273.109 182.667 272.159 181.739 271.477 180.544C270.815 179.328 270.485 177.888 270.485 176.224C270.485 174.603 270.815 173.184 271.477 171.968C272.138 170.752 273.045 169.803 274.197 169.12C275.349 168.437 276.661 168.096 278.133 168.096C279.221 168.096 280.191 168.277 281.045 168.64C281.898 168.981 282.623 169.493 283.221 170.176C283.839 170.837 284.298 171.648 284.597 172.608C284.917 173.568 285.077 174.645 285.077 175.84C285.077 176.203 284.97 176.48 284.757 176.672C284.543 176.843 284.223 176.928 283.797 176.928H273.045V174.944H282.901L282.357 175.392C282.357 174.325 282.197 173.419 281.877 172.672C281.578 171.925 281.119 171.36 280.501 170.976C279.903 170.571 279.157 170.368 278.261 170.368C277.258 170.368 276.405 170.603 275.701 171.072C275.018 171.541 274.495 172.192 274.133 173.024C273.77 173.856 273.589 174.827 273.589 175.936V176.128C273.589 178.005 274.026 179.424 274.901 180.384C275.797 181.323 277.087 181.792 278.773 181.792C279.413 181.792 280.085 181.707 280.789 181.536C281.514 181.365 282.197 181.077 282.837 180.672C283.199 180.459 283.519 180.363 283.797 180.384C284.095 180.405 284.33 180.501 284.501 180.672C284.693 180.843 284.81 181.056 284.853 181.312C284.895 181.568 284.853 181.835 284.725 182.112C284.597 182.368 284.373 182.603 284.053 182.816C283.327 183.307 282.485 183.68 281.525 183.936C280.565 184.171 279.637 184.288 278.741 184.288ZM299.182 184C298.606 184 298.158 183.851 297.838 183.552C297.539 183.232 297.39 182.784 297.39 182.208V163.232C297.39 162.656 297.539 162.219 297.838 161.92C298.158 161.6 298.606 161.44 299.182 161.44H310.862C311.31 161.44 311.651 161.557 311.886 161.792C312.12 162.005 312.238 162.325 312.238 162.752C312.238 163.2 312.12 163.541 311.886 163.776C311.651 164.011 311.31 164.128 310.862 164.128H300.59V171.2H310.158C310.627 171.2 310.968 171.317 311.182 171.552C311.416 171.787 311.534 172.117 311.534 172.544C311.534 172.992 311.416 173.333 311.182 173.568C310.968 173.781 310.627 173.888 310.158 173.888H300.59V181.312H310.862C311.31 181.312 311.651 181.429 311.886 181.664C312.12 181.899 312.238 182.229 312.238 182.656C312.238 183.104 312.12 183.445 311.886 183.68C311.651 183.893 311.31 184 310.862 184H299.182ZM317.481 184.224C316.969 184.224 316.575 184.085 316.297 183.808C316.02 183.509 315.881 183.104 315.881 182.592V169.792C315.881 169.259 316.02 168.853 316.297 168.576C316.575 168.299 316.959 168.16 317.449 168.16C317.961 168.16 318.345 168.299 318.601 168.576C318.879 168.853 319.017 169.259 319.017 169.792V172.288L318.665 171.712C319.135 170.517 319.871 169.621 320.873 169.024C321.876 168.405 323.028 168.096 324.329 168.096C325.567 168.096 326.591 168.331 327.401 168.8C328.233 169.248 328.852 169.941 329.257 170.88C329.663 171.797 329.865 172.96 329.865 174.368V182.592C329.865 183.104 329.727 183.509 329.449 183.808C329.172 184.085 328.777 184.224 328.265 184.224C327.732 184.224 327.327 184.085 327.049 183.808C326.772 183.509 326.633 183.104 326.633 182.592V174.56C326.633 173.216 326.367 172.235 325.833 171.616C325.321 170.997 324.511 170.688 323.401 170.688C322.1 170.688 321.055 171.093 320.265 171.904C319.497 172.715 319.113 173.803 319.113 175.168V182.592C319.113 183.68 318.569 184.224 317.481 184.224ZM341.391 190.048C340.239 190.048 339.119 189.931 338.031 189.696C336.964 189.461 335.994 189.077 335.119 188.544C334.799 188.373 334.586 188.16 334.479 187.904C334.372 187.669 334.34 187.424 334.383 187.168C334.447 186.912 334.564 186.688 334.735 186.496C334.906 186.304 335.108 186.176 335.343 186.112C335.599 186.048 335.866 186.091 336.143 186.24C337.082 186.752 337.967 187.093 338.799 187.264C339.652 187.456 340.442 187.552 341.167 187.552C342.66 187.552 343.78 187.168 344.527 186.4C345.274 185.653 345.647 184.544 345.647 183.072V179.808H345.935C345.615 180.981 344.943 181.909 343.919 182.592C342.895 183.275 341.711 183.616 340.367 183.616C338.959 183.616 337.732 183.296 336.687 182.656C335.642 181.995 334.831 181.088 334.255 179.936C333.679 178.763 333.391 177.397 333.391 175.84C333.391 174.667 333.551 173.611 333.871 172.672C334.212 171.733 334.682 170.923 335.279 170.24C335.898 169.557 336.634 169.035 337.487 168.672C338.362 168.288 339.322 168.096 340.367 168.096C341.732 168.096 342.916 168.437 343.919 169.12C344.943 169.803 345.604 170.731 345.903 171.904L345.583 172.448V169.792C345.583 169.259 345.722 168.853 345.999 168.576C346.298 168.299 346.692 168.16 347.183 168.16C347.695 168.16 348.09 168.299 348.367 168.576C348.644 168.853 348.783 169.259 348.783 169.792V182.688C348.783 185.12 348.154 186.955 346.895 188.192C345.636 189.429 343.802 190.048 341.391 190.048ZM341.135 181.088C342.074 181.088 342.874 180.875 343.535 180.448C344.196 180.021 344.708 179.413 345.071 178.624C345.434 177.835 345.615 176.907 345.615 175.84C345.615 174.24 345.21 172.971 344.399 172.032C343.61 171.093 342.522 170.624 341.135 170.624C340.218 170.624 339.428 170.837 338.767 171.264C338.106 171.691 337.583 172.299 337.199 173.088C336.836 173.856 336.655 174.773 336.655 175.84C336.655 177.461 337.06 178.741 337.871 179.68C338.682 180.619 339.77 181.088 341.135 181.088ZM354.919 184.192C354.407 184.192 354.012 184.043 353.735 183.744C353.458 183.424 353.319 182.987 353.319 182.432V169.952C353.319 169.397 353.458 168.971 353.735 168.672C354.012 168.373 354.407 168.224 354.919 168.224C355.431 168.224 355.826 168.373 356.103 168.672C356.402 168.971 356.551 169.397 356.551 169.952V182.432C356.551 182.987 356.412 183.424 356.135 183.744C355.858 184.043 355.452 184.192 354.919 184.192ZM354.919 164.896C354.279 164.896 353.778 164.736 353.415 164.416C353.074 164.096 352.903 163.648 352.903 163.072C352.903 162.475 353.074 162.027 353.415 161.728C353.778 161.408 354.279 161.248 354.919 161.248C355.559 161.248 356.05 161.408 356.391 161.728C356.754 162.027 356.935 162.475 356.935 163.072C356.935 163.648 356.754 164.096 356.391 164.416C356.05 164.736 355.559 164.896 354.919 164.896ZM362.7 184.224C362.188 184.224 361.793 184.085 361.516 183.808C361.239 183.509 361.1 183.104 361.1 182.592V169.792C361.1 169.259 361.239 168.853 361.516 168.576C361.793 168.299 362.177 168.16 362.668 168.16C363.18 168.16 363.564 168.299 363.82 168.576C364.097 168.853 364.236 169.259 364.236 169.792V172.288L363.884 171.712C364.353 170.517 365.089 169.621 366.092 169.024C367.095 168.405 368.247 168.096 369.548 168.096C370.785 168.096 371.809 168.331 372.62 168.8C373.452 169.248 374.071 169.941 374.476 170.88C374.881 171.797 375.084 172.96 375.084 174.368V182.592C375.084 183.104 374.945 183.509 374.668 183.808C374.391 184.085 373.996 184.224 373.484 184.224C372.951 184.224 372.545 184.085 372.268 183.808C371.991 183.509 371.852 183.104 371.852 182.592V174.56C371.852 173.216 371.585 172.235 371.052 171.616C370.54 170.997 369.729 170.688 368.62 170.688C367.319 170.688 366.273 171.093 365.484 171.904C364.716 172.715 364.332 173.803 364.332 175.168V182.592C364.332 183.68 363.788 184.224 362.7 184.224ZM386.866 184.288C385.159 184.288 383.687 183.968 382.45 183.328C381.234 182.667 380.284 181.739 379.602 180.544C378.94 179.328 378.61 177.888 378.61 176.224C378.61 174.603 378.94 173.184 379.602 171.968C380.263 170.752 381.17 169.803 382.322 169.12C383.474 168.437 384.786 168.096 386.258 168.096C387.346 168.096 388.316 168.277 389.17 168.64C390.023 168.981 390.748 169.493 391.346 170.176C391.964 170.837 392.423 171.648 392.722 172.608C393.042 173.568 393.202 174.645 393.202 175.84C393.202 176.203 393.095 176.48 392.882 176.672C392.668 176.843 392.348 176.928 391.922 176.928H381.17V174.944H391.026L390.482 175.392C390.482 174.325 390.322 173.419 390.002 172.672C389.703 171.925 389.244 171.36 388.626 170.976C388.028 170.571 387.282 170.368 386.386 170.368C385.383 170.368 384.53 170.603 383.826 171.072C383.143 171.541 382.62 172.192 382.258 173.024C381.895 173.856 381.714 174.827 381.714 175.936V176.128C381.714 178.005 382.151 179.424 383.026 180.384C383.922 181.323 385.212 181.792 386.898 181.792C387.538 181.792 388.21 181.707 388.914 181.536C389.639 181.365 390.322 181.077 390.962 180.672C391.324 180.459 391.644 180.363 391.922 180.384C392.22 180.405 392.455 180.501 392.626 180.672C392.818 180.843 392.935 181.056 392.978 181.312C393.02 181.568 392.978 181.835 392.85 182.112C392.722 182.368 392.498 182.603 392.178 182.816C391.452 183.307 390.61 183.68 389.65 183.936C388.69 184.171 387.762 184.288 386.866 184.288Z" fill="#2B2B2B"/>
<defs>
<clipPath id="clip0_289_201">
<rect width="463" height="121" fill="white" transform="translate(26)"/>
</clipPath>
</defs>
</svg>
