<svg width="713" height="292" viewBox="0 0 713 292" fill="none" xmlns="http://www.w3.org/2000/svg">
<g clip-path="url(#clip0_289_174)">
<path d="M414.971 21.3093V0L485.224 28.2674V45.6628L414.971 73.9302V52.186L455.988 36.9651L414.971 21.3093Z" fill="#A100FF"/>
<path d="M27.0539 187C12.2179 187 0 179.607 0 163.081V162.212C0 142.207 17.4541 135.249 38.8354 135.249H48.8715V131.335C48.8715 123.072 45.3807 118.288 36.6536 118.288C28.7993 118.288 24.8721 122.637 24.4357 128.726H2.61812C4.36353 110.46 18.7632 101.763 37.9627 101.763C57.5985 101.763 71.9982 110.026 71.9982 130.465V185.26H49.7442V175.693C45.3807 181.781 37.9627 187 27.0539 187ZM48.8715 158.298V150.47H39.7081C28.3629 150.47 22.6903 153.514 22.6903 160.907V161.777C22.6903 167.43 26.1812 171.344 34.0355 171.344C41.8898 170.909 48.8715 166.56 48.8715 158.298ZM123.924 187C101.234 187 84.6524 173.084 84.6524 145.251V143.947C84.6524 116.114 102.106 101.328 123.924 101.328C142.687 101.328 157.96 110.895 159.705 132.205H137.887C136.578 124.377 132.215 119.158 124.36 119.158C114.761 119.158 107.779 126.986 107.779 143.077V145.686C107.779 162.212 113.888 169.605 124.36 169.605C132.215 169.605 137.887 163.951 139.196 154.819H160.141C158.832 173.953 146.178 187 123.924 187ZM209.449 187C186.759 187 170.177 173.084 170.177 145.251V143.947C170.177 116.114 187.632 101.328 209.449 101.328C228.212 101.328 243.485 110.895 245.23 132.205H223.413C222.103 124.377 217.74 119.158 209.886 119.158C200.286 119.158 193.304 126.986 193.304 143.077V145.686C193.304 162.212 199.413 169.605 209.886 169.605C217.74 169.605 223.413 163.951 224.722 154.819H245.666C244.357 173.953 231.703 187 209.449 187ZM295.411 187C271.848 187 255.703 173.084 255.703 145.686V143.947C255.703 116.549 272.72 101.328 294.974 101.328C315.483 101.328 332.501 112.635 332.501 140.033V150.035H278.829C279.702 164.821 286.247 170.474 295.847 170.474C304.574 170.474 309.374 165.691 311.119 160.037H332.501C329.883 175.258 316.792 187 295.411 187ZM279.266 134.814H309.81C309.374 122.637 303.701 117.419 294.538 117.419C287.556 117.853 281.011 121.767 279.266 134.814ZM346.464 103.502H369.591V115.679C373.518 107.851 381.808 101.763 394.463 101.763C409.299 101.763 419.335 110.895 419.335 130.465V185.26H396.208V133.944C396.208 124.377 392.281 120.028 383.99 120.028C376.136 120.028 369.591 124.812 369.591 135.249V185.26H346.464V103.502ZM461.661 78.714V103.502H477.37V120.463H461.661V159.167C461.661 165.256 464.279 168.3 469.952 168.3C473.443 168.3 475.624 167.865 477.806 166.995V184.826C475.188 185.695 470.388 186.565 464.715 186.565C446.825 186.565 438.534 178.302 438.534 161.777V120.463H428.935V103.502H438.534V88.2814L461.661 78.714ZM563.767 185.26H541.077V173.084C537.15 180.912 529.296 187 517.078 187C502.242 187 491.333 177.867 491.333 158.733V103.502H514.46V155.688C514.46 165.256 518.387 169.605 526.241 169.605C534.096 169.605 540.641 164.386 540.641 154.384V103.502H563.767V185.26ZM580.785 103.502H603.912V118.723C608.712 107.851 616.566 102.633 628.784 102.633V125.247C613.075 125.247 603.912 130.03 603.912 143.512V185.695H580.785V103.502ZM675.474 187C651.911 187 635.766 173.084 635.766 145.686V143.947C635.766 116.549 652.783 101.328 675.037 101.328C695.546 101.328 712.564 112.635 712.564 140.033V150.035H659.329C660.201 164.821 666.747 170.474 676.346 170.474C685.073 170.474 689.873 165.691 691.619 160.037H713C709.509 175.258 696.855 187 675.474 187ZM658.892 134.814H689.873C689.437 122.637 683.764 117.419 674.601 117.419C667.619 117.853 661.074 121.767 658.892 134.814Z" fill="white"/>
</g>
<path d="M128.482 273.385C127.565 273.385 126.85 273.128 126.337 272.615C125.86 272.102 125.622 271.387 125.622 270.47V236.7C125.622 235.747 125.86 235.032 126.337 234.555C126.85 234.078 127.565 233.84 128.482 233.84C129.398 233.84 130.095 234.078 130.572 234.555C131.085 235.032 131.342 235.747 131.342 236.7V251.66H131.452L148.337 235.325C148.887 234.812 149.4 234.445 149.877 234.225C150.39 233.968 150.958 233.84 151.582 233.84C152.425 233.84 153.03 234.06 153.397 234.5C153.8 234.903 153.965 235.398 153.892 235.985C153.818 236.572 153.507 237.14 152.957 237.69L135.412 254.41L135.522 251.605L153.782 269.205C154.442 269.828 154.79 270.47 154.827 271.13C154.863 271.79 154.662 272.34 154.222 272.78C153.782 273.183 153.158 273.385 152.352 273.385C151.618 273.385 151.032 273.238 150.592 272.945C150.152 272.652 149.638 272.23 149.052 271.68L131.452 254.905H131.342V270.47C131.342 271.387 131.103 272.102 130.627 272.615C130.15 273.128 129.435 273.385 128.482 273.385ZM163.109 273.385C162.229 273.385 161.55 273.147 161.074 272.67C160.597 272.157 160.359 271.46 160.359 270.58V248.58C160.359 247.663 160.597 246.967 161.074 246.49C161.55 246.013 162.21 245.775 163.054 245.775C163.934 245.775 164.594 246.013 165.034 246.49C165.51 246.967 165.749 247.663 165.749 248.58V252.87L165.144 251.88C165.95 249.827 167.215 248.287 168.939 247.26C170.662 246.197 172.642 245.665 174.879 245.665C177.005 245.665 178.765 246.068 180.159 246.875C181.589 247.645 182.652 248.837 183.349 250.45C184.045 252.027 184.394 254.025 184.394 256.445V270.58C184.394 271.46 184.155 272.157 183.679 272.67C183.202 273.147 182.524 273.385 181.644 273.385C180.727 273.385 180.03 273.147 179.554 272.67C179.077 272.157 178.839 271.46 178.839 270.58V256.775C178.839 254.465 178.38 252.778 177.464 251.715C176.584 250.652 175.19 250.12 173.284 250.12C171.047 250.12 169.25 250.817 167.894 252.21C166.574 253.603 165.914 255.473 165.914 257.82V270.58C165.914 272.45 164.979 273.385 163.109 273.385ZM203.708 273.495C200.995 273.495 198.648 272.927 196.668 271.79C194.725 270.653 193.203 269.04 192.103 266.95C191.003 264.86 190.453 262.403 190.453 259.58C190.453 257.417 190.765 255.492 191.388 253.805C192.011 252.118 192.891 250.67 194.028 249.46C195.201 248.213 196.595 247.278 198.208 246.655C199.858 245.995 201.691 245.665 203.708 245.665C206.385 245.665 208.695 246.233 210.638 247.37C212.618 248.507 214.158 250.12 215.258 252.21C216.358 254.263 216.908 256.72 216.908 259.58C216.908 261.707 216.596 263.632 215.973 265.355C215.35 267.078 214.451 268.545 213.278 269.755C212.141 270.965 210.748 271.9 209.098 272.56C207.485 273.183 205.688 273.495 203.708 273.495ZM203.708 269.205C205.211 269.205 206.531 268.838 207.668 268.105C208.805 267.372 209.685 266.29 210.308 264.86C210.968 263.43 211.298 261.67 211.298 259.58C211.298 256.427 210.601 254.043 209.208 252.43C207.815 250.817 205.981 250.01 203.708 250.01C202.168 250.01 200.83 250.377 199.693 251.11C198.556 251.807 197.658 252.87 196.998 254.3C196.375 255.73 196.063 257.49 196.063 259.58C196.063 262.697 196.76 265.08 198.153 266.73C199.546 268.38 201.398 269.205 203.708 269.205ZM232.453 273.385C231.683 273.385 231.005 273.202 230.418 272.835C229.868 272.432 229.428 271.808 229.098 270.965L221.013 249.57C220.72 248.837 220.628 248.195 220.738 247.645C220.848 247.058 221.123 246.6 221.563 246.27C222.04 245.94 222.645 245.775 223.378 245.775C224.038 245.775 224.57 245.94 224.973 246.27C225.413 246.563 225.78 247.15 226.073 248.03L233.278 268.325H231.958L239.438 247.81C239.695 247.113 240.043 246.6 240.483 246.27C240.923 245.94 241.492 245.775 242.188 245.775C242.885 245.775 243.453 245.94 243.893 246.27C244.37 246.6 244.718 247.113 244.938 247.81L252.253 268.325H251.043L258.358 247.92C258.652 247.077 259.018 246.508 259.458 246.215C259.935 245.922 260.467 245.775 261.053 245.775C261.787 245.775 262.337 245.958 262.703 246.325C263.107 246.692 263.327 247.168 263.363 247.755C263.437 248.305 263.345 248.91 263.088 249.57L255.003 270.965C254.673 271.772 254.215 272.377 253.628 272.78C253.078 273.183 252.437 273.385 251.703 273.385C250.933 273.385 250.255 273.183 249.668 272.78C249.118 272.377 248.678 271.772 248.348 270.965L240.648 250.12H243.398L235.753 270.965C235.46 271.772 235.02 272.377 234.433 272.78C233.883 273.183 233.223 273.385 232.453 273.385ZM277.812 273.495C274.952 273.495 272.789 272.67 271.322 271.02C269.892 269.333 269.177 266.913 269.177 263.76V236.645C269.177 235.728 269.415 235.032 269.892 234.555C270.369 234.078 271.047 233.84 271.927 233.84C272.807 233.84 273.485 234.078 273.962 234.555C274.475 235.032 274.732 235.728 274.732 236.645V263.43C274.732 265.263 275.099 266.638 275.832 267.555C276.602 268.435 277.702 268.875 279.132 268.875C279.462 268.875 279.755 268.875 280.012 268.875C280.269 268.838 280.525 268.802 280.782 268.765C281.222 268.728 281.534 268.857 281.717 269.15C281.9 269.407 281.992 269.957 281.992 270.8C281.992 271.57 281.827 272.175 281.497 272.615C281.167 273.018 280.635 273.275 279.902 273.385C279.572 273.422 279.224 273.44 278.857 273.44C278.49 273.477 278.142 273.495 277.812 273.495ZM298.315 273.495C295.382 273.495 292.852 272.945 290.725 271.845C288.635 270.708 287.003 269.113 285.83 267.06C284.693 264.97 284.125 262.495 284.125 259.635C284.125 256.848 284.693 254.41 285.83 252.32C286.967 250.23 288.525 248.598 290.505 247.425C292.485 246.252 294.74 245.665 297.27 245.665C299.14 245.665 300.808 245.977 302.275 246.6C303.742 247.187 304.988 248.067 306.015 249.24C307.078 250.377 307.867 251.77 308.38 253.42C308.93 255.07 309.205 256.922 309.205 258.975C309.205 259.598 309.022 260.075 308.655 260.405C308.288 260.698 307.738 260.845 307.005 260.845H288.525V257.435H305.465L304.53 258.205C304.53 256.372 304.255 254.813 303.705 253.53C303.192 252.247 302.403 251.275 301.34 250.615C300.313 249.918 299.03 249.57 297.49 249.57C295.767 249.57 294.3 249.973 293.09 250.78C291.917 251.587 291.018 252.705 290.395 254.135C289.772 255.565 289.46 257.233 289.46 259.14V259.47C289.46 262.697 290.212 265.135 291.715 266.785C293.255 268.398 295.473 269.205 298.37 269.205C299.47 269.205 300.625 269.058 301.835 268.765C303.082 268.472 304.255 267.977 305.355 267.28C305.978 266.913 306.528 266.748 307.005 266.785C307.518 266.822 307.922 266.987 308.215 267.28C308.545 267.573 308.747 267.94 308.82 268.38C308.893 268.82 308.82 269.278 308.6 269.755C308.38 270.195 307.995 270.598 307.445 270.965C306.198 271.808 304.75 272.45 303.1 272.89C301.45 273.293 299.855 273.495 298.315 273.495ZM325.491 273.495C323.144 273.495 321.073 272.945 319.276 271.845C317.516 270.708 316.141 269.095 315.151 267.005C314.161 264.878 313.666 262.403 313.666 259.58C313.666 256.683 314.161 254.208 315.151 252.155C316.141 250.102 317.516 248.507 319.276 247.37C321.073 246.233 323.144 245.665 325.491 245.665C327.838 245.665 329.854 246.252 331.541 247.425C333.264 248.562 334.419 250.102 335.006 252.045H334.401V236.645C334.401 235.728 334.639 235.032 335.116 234.555C335.593 234.078 336.271 233.84 337.151 233.84C338.031 233.84 338.709 234.078 339.186 234.555C339.699 235.032 339.956 235.728 339.956 236.645V270.58C339.956 271.46 339.718 272.157 339.241 272.67C338.764 273.147 338.086 273.385 337.206 273.385C336.326 273.385 335.648 273.147 335.171 272.67C334.694 272.157 334.456 271.46 334.456 270.58V265.74L335.061 266.95C334.474 268.93 333.319 270.525 331.596 271.735C329.909 272.908 327.874 273.495 325.491 273.495ZM326.921 269.205C328.424 269.205 329.744 268.838 330.881 268.105C332.018 267.372 332.898 266.29 333.521 264.86C334.181 263.43 334.511 261.67 334.511 259.58C334.511 256.427 333.814 254.043 332.421 252.43C331.028 250.817 329.194 250.01 326.921 250.01C325.381 250.01 324.043 250.377 322.906 251.11C321.769 251.807 320.871 252.87 320.211 254.3C319.588 255.73 319.276 257.49 319.276 259.58C319.276 262.697 319.973 265.08 321.366 266.73C322.759 268.38 324.611 269.205 326.921 269.205ZM359.911 283.395C357.931 283.395 356.006 283.193 354.136 282.79C352.303 282.387 350.634 281.727 349.131 280.81C348.581 280.517 348.214 280.15 348.031 279.71C347.848 279.307 347.793 278.885 347.866 278.445C347.976 278.005 348.178 277.62 348.471 277.29C348.764 276.96 349.113 276.74 349.516 276.63C349.956 276.52 350.414 276.593 350.891 276.85C352.504 277.73 354.026 278.317 355.456 278.61C356.923 278.94 358.279 279.105 359.526 279.105C362.093 279.105 364.018 278.445 365.301 277.125C366.584 275.842 367.226 273.935 367.226 271.405V265.795H367.721C367.171 267.812 366.016 269.407 364.256 270.58C362.496 271.753 360.461 272.34 358.151 272.34C355.731 272.34 353.623 271.79 351.826 270.69C350.029 269.553 348.636 267.995 347.646 266.015C346.656 263.998 346.161 261.652 346.161 258.975C346.161 256.958 346.436 255.143 346.986 253.53C347.573 251.917 348.379 250.523 349.406 249.35C350.469 248.177 351.734 247.278 353.201 246.655C354.704 245.995 356.354 245.665 358.151 245.665C360.498 245.665 362.533 246.252 364.256 247.425C366.016 248.598 367.153 250.193 367.666 252.21L367.116 253.145V248.58C367.116 247.663 367.354 246.967 367.831 246.49C368.344 246.013 369.023 245.775 369.866 245.775C370.746 245.775 371.424 246.013 371.901 246.49C372.378 246.967 372.616 247.663 372.616 248.58V270.745C372.616 274.925 371.534 278.078 369.371 280.205C367.208 282.332 364.054 283.395 359.911 283.395ZM359.471 267.995C361.084 267.995 362.459 267.628 363.596 266.895C364.733 266.162 365.613 265.117 366.236 263.76C366.859 262.403 367.171 260.808 367.171 258.975C367.171 256.225 366.474 254.043 365.081 252.43C363.724 250.817 361.854 250.01 359.471 250.01C357.894 250.01 356.538 250.377 355.401 251.11C354.264 251.843 353.366 252.888 352.706 254.245C352.083 255.565 351.771 257.142 351.771 258.975C351.771 261.762 352.468 263.962 353.861 265.575C355.254 267.188 357.124 267.995 359.471 267.995ZM393.007 273.495C390.074 273.495 387.544 272.945 385.417 271.845C383.327 270.708 381.696 269.113 380.522 267.06C379.386 264.97 378.817 262.495 378.817 259.635C378.817 256.848 379.386 254.41 380.522 252.32C381.659 250.23 383.217 248.598 385.197 247.425C387.177 246.252 389.432 245.665 391.962 245.665C393.832 245.665 395.501 245.977 396.967 246.6C398.434 247.187 399.681 248.067 400.707 249.24C401.771 250.377 402.559 251.77 403.072 253.42C403.622 255.07 403.897 256.922 403.897 258.975C403.897 259.598 403.714 260.075 403.347 260.405C402.981 260.698 402.431 260.845 401.697 260.845H383.217V257.435H400.157L399.222 258.205C399.222 256.372 398.947 254.813 398.397 253.53C397.884 252.247 397.096 251.275 396.032 250.615C395.006 249.918 393.722 249.57 392.182 249.57C390.459 249.57 388.992 249.973 387.782 250.78C386.609 251.587 385.711 252.705 385.087 254.135C384.464 255.565 384.152 257.233 384.152 259.14V259.47C384.152 262.697 384.904 265.135 386.407 266.785C387.947 268.398 390.166 269.205 393.062 269.205C394.162 269.205 395.317 269.058 396.527 268.765C397.774 268.472 398.947 267.977 400.047 267.28C400.671 266.913 401.221 266.748 401.697 266.785C402.211 266.822 402.614 266.987 402.907 267.28C403.237 267.573 403.439 267.94 403.512 268.38C403.586 268.82 403.512 269.278 403.292 269.755C403.072 270.195 402.687 270.598 402.137 270.965C400.891 271.808 399.442 272.45 397.792 272.89C396.142 273.293 394.547 273.495 393.007 273.495ZM428.14 273C427.15 273 426.38 272.743 425.83 272.23C425.317 271.68 425.06 270.91 425.06 269.92V237.305C425.06 236.315 425.317 235.563 425.83 235.05C426.38 234.5 427.15 234.225 428.14 234.225H448.215C448.985 234.225 449.572 234.427 449.975 234.83C450.379 235.197 450.58 235.747 450.58 236.48C450.58 237.25 450.379 237.837 449.975 238.24C449.572 238.643 448.985 238.845 448.215 238.845H430.56V251H447.005C447.812 251 448.399 251.202 448.765 251.605C449.169 252.008 449.37 252.577 449.37 253.31C449.37 254.08 449.169 254.667 448.765 255.07C448.399 255.437 447.812 255.62 447.005 255.62H430.56V268.38H448.215C448.985 268.38 449.572 268.582 449.975 268.985C450.379 269.388 450.58 269.957 450.58 270.69C450.58 271.46 450.379 272.047 449.975 272.45C449.572 272.817 448.985 273 448.215 273H428.14ZM459.593 273.385C458.713 273.385 458.035 273.147 457.558 272.67C457.081 272.157 456.843 271.46 456.843 270.58V248.58C456.843 247.663 457.081 246.967 457.558 246.49C458.035 246.013 458.695 245.775 459.538 245.775C460.418 245.775 461.078 246.013 461.518 246.49C461.995 246.967 462.233 247.663 462.233 248.58V252.87L461.628 251.88C462.435 249.827 463.7 248.287 465.423 247.26C467.146 246.197 469.126 245.665 471.363 245.665C473.49 245.665 475.25 246.068 476.643 246.875C478.073 247.645 479.136 248.837 479.833 250.45C480.53 252.027 480.878 254.025 480.878 256.445V270.58C480.878 271.46 480.64 272.157 480.163 272.67C479.686 273.147 479.008 273.385 478.128 273.385C477.211 273.385 476.515 273.147 476.038 272.67C475.561 272.157 475.323 271.46 475.323 270.58V256.775C475.323 254.465 474.865 252.778 473.948 251.715C473.068 250.652 471.675 250.12 469.768 250.12C467.531 250.12 465.735 250.817 464.378 252.21C463.058 253.603 462.398 255.473 462.398 257.82V270.58C462.398 272.45 461.463 273.385 459.593 273.385ZM500.687 283.395C498.707 283.395 496.782 283.193 494.912 282.79C493.079 282.387 491.411 281.727 489.907 280.81C489.357 280.517 488.991 280.15 488.807 279.71C488.624 279.307 488.569 278.885 488.642 278.445C488.752 278.005 488.954 277.62 489.247 277.29C489.541 276.96 489.889 276.74 490.292 276.63C490.732 276.52 491.191 276.593 491.667 276.85C493.281 277.73 494.802 278.317 496.232 278.61C497.699 278.94 499.056 279.105 500.302 279.105C502.869 279.105 504.794 278.445 506.077 277.125C507.361 275.842 508.002 273.935 508.002 271.405V265.795H508.497C507.947 267.812 506.792 269.407 505.032 270.58C503.272 271.753 501.237 272.34 498.927 272.34C496.507 272.34 494.399 271.79 492.602 270.69C490.806 269.553 489.412 267.995 488.422 266.015C487.432 263.998 486.937 261.652 486.937 258.975C486.937 256.958 487.212 255.143 487.762 253.53C488.349 251.917 489.156 250.523 490.182 249.35C491.246 248.177 492.511 247.278 493.977 246.655C495.481 245.995 497.131 245.665 498.927 245.665C501.274 245.665 503.309 246.252 505.032 247.425C506.792 248.598 507.929 250.193 508.442 252.21L507.892 253.145V248.58C507.892 247.663 508.131 246.967 508.607 246.49C509.121 246.013 509.799 245.775 510.642 245.775C511.522 245.775 512.201 246.013 512.677 246.49C513.154 246.967 513.392 247.663 513.392 248.58V270.745C513.392 274.925 512.311 278.078 510.147 280.205C507.984 282.332 504.831 283.395 500.687 283.395ZM500.247 267.995C501.861 267.995 503.236 267.628 504.372 266.895C505.509 266.162 506.389 265.117 507.012 263.76C507.636 262.403 507.947 260.808 507.947 258.975C507.947 256.225 507.251 254.043 505.857 252.43C504.501 250.817 502.631 250.01 500.247 250.01C498.671 250.01 497.314 250.377 496.177 251.11C495.041 251.843 494.142 252.888 493.482 254.245C492.859 255.565 492.547 257.142 492.547 258.975C492.547 261.762 493.244 263.962 494.637 265.575C496.031 267.188 497.901 267.995 500.247 267.995ZM523.939 273.33C523.059 273.33 522.38 273.073 521.904 272.56C521.427 272.01 521.189 271.258 521.189 270.305V248.855C521.189 247.902 521.427 247.168 521.904 246.655C522.38 246.142 523.059 245.885 523.939 245.885C524.819 245.885 525.497 246.142 525.974 246.655C526.487 247.168 526.744 247.902 526.744 248.855V270.305C526.744 271.258 526.505 272.01 526.029 272.56C525.552 273.073 524.855 273.33 523.939 273.33ZM523.939 240.165C522.839 240.165 521.977 239.89 521.354 239.34C520.767 238.79 520.474 238.02 520.474 237.03C520.474 236.003 520.767 235.233 521.354 234.72C521.977 234.17 522.839 233.895 523.939 233.895C525.039 233.895 525.882 234.17 526.469 234.72C527.092 235.233 527.404 236.003 527.404 237.03C527.404 238.02 527.092 238.79 526.469 239.34C525.882 239.89 525.039 240.165 523.939 240.165ZM537.313 273.385C536.433 273.385 535.754 273.147 535.278 272.67C534.801 272.157 534.563 271.46 534.563 270.58V248.58C534.563 247.663 534.801 246.967 535.278 246.49C535.754 246.013 536.414 245.775 537.258 245.775C538.138 245.775 538.798 246.013 539.238 246.49C539.714 246.967 539.953 247.663 539.953 248.58V252.87L539.348 251.88C540.154 249.827 541.419 248.287 543.143 247.26C544.866 246.197 546.846 245.665 549.083 245.665C551.209 245.665 552.969 246.068 554.363 246.875C555.793 247.645 556.856 248.837 557.553 250.45C558.249 252.027 558.598 254.025 558.598 256.445V270.58C558.598 271.46 558.359 272.157 557.883 272.67C557.406 273.147 556.728 273.385 555.848 273.385C554.931 273.385 554.234 273.147 553.758 272.67C553.281 272.157 553.043 271.46 553.043 270.58V256.775C553.043 254.465 552.584 252.778 551.668 251.715C550.788 250.652 549.394 250.12 547.488 250.12C545.251 250.12 543.454 250.817 542.098 252.21C540.778 253.603 540.118 255.473 540.118 257.82V270.58C540.118 272.45 539.183 273.385 537.313 273.385ZM578.847 273.495C575.914 273.495 573.384 272.945 571.257 271.845C569.167 270.708 567.536 269.113 566.362 267.06C565.226 264.97 564.657 262.495 564.657 259.635C564.657 256.848 565.226 254.41 566.362 252.32C567.499 250.23 569.057 248.598 571.037 247.425C573.017 246.252 575.272 245.665 577.802 245.665C579.672 245.665 581.341 245.977 582.807 246.6C584.274 247.187 585.521 248.067 586.547 249.24C587.611 250.377 588.399 251.77 588.912 253.42C589.462 255.07 589.737 256.922 589.737 258.975C589.737 259.598 589.554 260.075 589.187 260.405C588.821 260.698 588.271 260.845 587.537 260.845H569.057V257.435H585.997L585.062 258.205C585.062 256.372 584.787 254.813 584.237 253.53C583.724 252.247 582.936 251.275 581.872 250.615C580.846 249.918 579.562 249.57 578.022 249.57C576.299 249.57 574.832 249.973 573.622 250.78C572.449 251.587 571.551 252.705 570.927 254.135C570.304 255.565 569.992 257.233 569.992 259.14V259.47C569.992 262.697 570.744 265.135 572.247 266.785C573.787 268.398 576.006 269.205 578.902 269.205C580.002 269.205 581.157 269.058 582.367 268.765C583.614 268.472 584.787 267.977 585.887 267.28C586.511 266.913 587.061 266.748 587.537 266.785C588.051 266.822 588.454 266.987 588.747 267.28C589.077 267.573 589.279 267.94 589.352 268.38C589.426 268.82 589.352 269.278 589.132 269.755C588.912 270.195 588.527 270.598 587.977 270.965C586.731 271.808 585.282 272.45 583.632 272.89C581.982 273.293 580.387 273.495 578.847 273.495Z" fill="white"/>
<defs>
<clipPath id="clip0_289_174">
<rect width="713" height="187" fill="white"/>
</clipPath>
</defs>
</svg>
