<svg width="266" height="111" viewBox="0 0 266 111" fill="none" xmlns="http://www.w3.org/2000/svg">
<g clip-path="url(#clip0_289_183)">
<path d="M154.618 7.97674V0L180.794 10.5814V17.093L154.618 27.6744V19.5349L169.901 13.8372L154.618 7.97674Z" fill="#A100FF"/>
<path d="M10.0802 70C4.55236 70 0 67.2326 0 61.0465V60.7209C0 53.2326 6.50337 50.6279 14.47 50.6279H18.2094V49.1628C18.2094 46.0698 16.9088 44.2791 13.6571 44.2791C10.7306 44.2791 9.2673 45.907 9.10472 48.186H0.975506C1.62584 41.3488 6.99112 38.093 14.1448 38.093C21.4611 38.093 26.8264 41.186 26.8264 48.8372V69.3488H18.5346V65.7674C16.9088 68.0465 14.1448 70 10.0802 70ZM18.2094 59.2558V56.3256H14.7952C10.568 56.3256 8.45438 57.4651 8.45438 60.2326V60.5581C8.45438 62.6744 9.75506 64.1395 12.6816 64.1395C15.6081 63.9767 18.2094 62.3488 18.2094 59.2558ZM46.1739 70C37.7195 70 31.5413 64.7907 31.5413 54.3721V53.8837C31.5413 43.4651 38.0447 37.9302 46.1739 37.9302C53.1651 37.9302 58.8555 41.5116 59.5058 49.4884H51.3766C50.8889 46.5581 49.263 44.6047 46.3365 44.6047C42.7597 44.6047 40.1583 47.5349 40.1583 53.5581V54.5349C40.1583 60.7209 42.4345 63.4884 46.3365 63.4884C49.263 63.4884 51.3766 61.3721 51.8644 57.9535H59.6684C59.1807 65.1163 54.4657 70 46.1739 70ZM78.0404 70C69.5861 70 63.4079 64.7907 63.4079 54.3721V53.8837C63.4079 43.4651 69.9112 37.9302 78.0404 37.9302C85.0316 37.9302 90.722 41.5116 91.3724 49.4884H83.2431C82.7554 46.5581 81.1295 44.6047 78.203 44.6047C74.6262 44.6047 72.0248 47.5349 72.0248 53.5581V54.5349C72.0248 60.7209 74.301 63.4884 78.203 63.4884C81.1295 63.4884 83.2431 61.3721 83.7309 57.9535H91.5349C91.0472 65.1163 86.3322 70 78.0404 70ZM110.07 70C101.29 70 95.2744 64.7907 95.2744 54.5349V53.8837C95.2744 43.6279 101.615 37.9302 109.907 37.9302C117.548 37.9302 123.889 42.1628 123.889 52.4186V56.1628H103.891C104.217 61.6977 106.655 63.814 110.232 63.814C113.484 63.814 115.272 62.0233 115.923 59.907H123.889C122.914 65.6046 118.036 70 110.07 70ZM104.054 50.4651H115.435C115.272 45.907 113.159 43.9535 109.744 43.9535C107.143 44.1163 104.704 45.5814 104.054 50.4651ZM129.092 38.7442H137.709V43.3023C139.172 40.3721 142.261 38.093 146.976 38.093C152.504 38.093 156.243 41.5116 156.243 48.8372V69.3488H147.627V50.1395C147.627 46.5581 146.163 44.9302 143.074 44.9302C140.148 44.9302 137.709 46.7209 137.709 50.6279V69.3488H129.092V38.7442ZM172.014 29.4651V38.7442H177.867V45.093H172.014V59.5814C172.014 61.8605 172.99 63 175.103 63C176.404 63 177.217 62.8372 178.03 62.5116V69.186C177.054 69.5116 175.266 69.8372 173.152 69.8372C166.486 69.8372 163.397 66.7442 163.397 60.5581V45.093H159.82V38.7442H163.397V33.0465L172.014 29.4651ZM210.059 69.3488H201.604V64.7907C200.141 67.7209 197.215 70 192.662 70C187.134 70 183.07 66.5814 183.07 59.4186V38.7442H191.687V58.2791C191.687 61.8605 193.15 63.4884 196.077 63.4884C199.003 63.4884 201.442 61.5349 201.442 57.7907V38.7442H210.059V69.3488ZM216.4 38.7442H225.017V44.4419C226.805 40.3721 229.732 38.4186 234.284 38.4186V46.8837C228.431 46.8837 225.017 48.6744 225.017 53.7209V69.5116H216.4V38.7442ZM251.68 70C242.901 70 236.885 64.7907 236.885 54.5349V53.8837C236.885 43.6279 243.226 37.9302 251.518 37.9302C259.159 37.9302 265.5 42.1628 265.5 52.4186V56.1628H245.665C245.99 61.6977 248.429 63.814 252.006 63.814C255.257 63.814 257.046 62.0233 257.696 59.907H265.663C264.362 65.6046 259.647 70 251.68 70ZM245.502 50.4651H257.046C256.883 45.907 254.77 43.9535 251.355 43.9535C248.754 44.1163 246.315 45.5814 245.502 50.4651Z" fill="white"/>
</g>
<path d="M33.3325 102.168C32.9325 102.168 32.6205 102.056 32.3965 101.832C32.1885 101.608 32.0845 101.296 32.0845 100.896V86.16C32.0845 85.744 32.1885 85.432 32.3965 85.224C32.6205 85.016 32.9325 84.912 33.3325 84.912C33.7325 84.912 34.0365 85.016 34.2445 85.224C34.4685 85.432 34.5805 85.744 34.5805 86.16V92.688H34.6285L41.9965 85.56C42.2365 85.336 42.4605 85.176 42.6685 85.08C42.8925 84.968 43.1405 84.912 43.4125 84.912C43.7805 84.912 44.0445 85.008 44.2045 85.2C44.3805 85.376 44.4525 85.592 44.4205 85.848C44.3885 86.104 44.2525 86.352 44.0125 86.592L36.3565 93.888L36.4045 92.664L44.3725 100.344C44.6605 100.616 44.8125 100.896 44.8285 101.184C44.8445 101.472 44.7565 101.712 44.5645 101.904C44.3725 102.08 44.1005 102.168 43.7485 102.168C43.4285 102.168 43.1725 102.104 42.9805 101.976C42.7885 101.848 42.5645 101.664 42.3085 101.424L34.6285 94.104H34.5805V100.896C34.5805 101.296 34.4765 101.608 34.2685 101.832C34.0605 102.056 33.7485 102.168 33.3325 102.168ZM48.4424 102.168C48.0584 102.168 47.7624 102.064 47.5544 101.856C47.3464 101.632 47.2424 101.328 47.2424 100.944V91.344C47.2424 90.944 47.3464 90.64 47.5544 90.432C47.7624 90.224 48.0504 90.12 48.4184 90.12C48.8024 90.12 49.0904 90.224 49.2824 90.432C49.4904 90.64 49.5944 90.944 49.5944 91.344V93.216L49.3304 92.784C49.6824 91.888 50.2344 91.216 50.9864 90.768C51.7384 90.304 52.6024 90.072 53.5784 90.072C54.5064 90.072 55.2744 90.248 55.8824 90.6C56.5064 90.936 56.9704 91.456 57.2744 92.16C57.5784 92.848 57.7304 93.72 57.7304 94.776V100.944C57.7304 101.328 57.6264 101.632 57.4184 101.856C57.2104 102.064 56.9144 102.168 56.5304 102.168C56.1304 102.168 55.8264 102.064 55.6184 101.856C55.4104 101.632 55.3064 101.328 55.3064 100.944V94.92C55.3064 93.912 55.1064 93.176 54.7064 92.712C54.3224 92.248 53.7144 92.016 52.8824 92.016C51.9064 92.016 51.1224 92.32 50.5304 92.928C49.9544 93.536 49.6664 94.352 49.6664 95.376V100.944C49.6664 101.76 49.2584 102.168 48.4424 102.168ZM66.1585 102.216C64.9745 102.216 63.9505 101.968 63.0865 101.472C62.2385 100.976 61.5745 100.272 61.0945 99.36C60.6145 98.448 60.3745 97.376 60.3745 96.144C60.3745 95.2 60.5105 94.36 60.7825 93.624C61.0545 92.888 61.4385 92.256 61.9345 91.728C62.4465 91.184 63.0545 90.776 63.7585 90.504C64.4785 90.216 65.2785 90.072 66.1585 90.072C67.3265 90.072 68.3345 90.32 69.1825 90.816C70.0465 91.312 70.7185 92.016 71.1985 92.928C71.6785 93.824 71.9185 94.896 71.9185 96.144C71.9185 97.072 71.7825 97.912 71.5105 98.664C71.2385 99.416 70.8465 100.056 70.3345 100.584C69.8385 101.112 69.2305 101.52 68.5105 101.808C67.8065 102.08 67.0225 102.216 66.1585 102.216ZM66.1585 100.344C66.8145 100.344 67.3905 100.184 67.8865 99.864C68.3825 99.544 68.7665 99.072 69.0385 98.448C69.3265 97.824 69.4705 97.056 69.4705 96.144C69.4705 94.768 69.1665 93.728 68.5585 93.024C67.9505 92.32 67.1505 91.968 66.1585 91.968C65.4865 91.968 64.9025 92.128 64.4065 92.448C63.9105 92.752 63.5185 93.216 63.2305 93.84C62.9585 94.464 62.8225 95.232 62.8225 96.144C62.8225 97.504 63.1265 98.544 63.7345 99.264C64.3425 99.984 65.1505 100.344 66.1585 100.344ZM78.7019 102.168C78.3659 102.168 78.0699 102.088 77.8139 101.928C77.5739 101.752 77.3819 101.48 77.2379 101.112L73.7099 91.776C73.5819 91.456 73.5419 91.176 73.5899 90.936C73.6379 90.68 73.7579 90.48 73.9499 90.336C74.1579 90.192 74.4219 90.12 74.7419 90.12C75.0299 90.12 75.2619 90.192 75.4379 90.336C75.6299 90.464 75.7899 90.72 75.9179 91.104L79.0619 99.96H78.4859L81.7499 91.008C81.8619 90.704 82.0139 90.48 82.2059 90.336C82.3979 90.192 82.6459 90.12 82.9499 90.12C83.2539 90.12 83.5019 90.192 83.6939 90.336C83.9019 90.48 84.0539 90.704 84.1499 91.008L87.3419 99.96H86.8139L90.0059 91.056C90.1339 90.688 90.2939 90.44 90.4859 90.312C90.6939 90.184 90.9259 90.12 91.1819 90.12C91.5019 90.12 91.7419 90.2 91.9019 90.36C92.0779 90.52 92.1739 90.728 92.1899 90.984C92.2219 91.224 92.1819 91.488 92.0699 91.776L88.5419 101.112C88.3979 101.464 88.1979 101.728 87.9419 101.904C87.7019 102.08 87.4219 102.168 87.1019 102.168C86.7659 102.168 86.4699 102.08 86.2139 101.904C85.9739 101.728 85.7819 101.464 85.6379 101.112L82.2779 92.016H83.4779L80.1419 101.112C80.0139 101.464 79.8219 101.728 79.5659 101.904C79.3259 102.08 79.0379 102.168 78.7019 102.168ZM98.4947 102.216C97.2467 102.216 96.3027 101.856 95.6627 101.136C95.0387 100.4 94.7267 99.344 94.7267 97.968V86.136C94.7267 85.736 94.8307 85.432 95.0387 85.224C95.2467 85.016 95.5427 84.912 95.9267 84.912C96.3107 84.912 96.6067 85.016 96.8147 85.224C97.0387 85.432 97.1507 85.736 97.1507 86.136V97.824C97.1507 98.624 97.3107 99.224 97.6307 99.624C97.9667 100.008 98.4467 100.2 99.0707 100.2C99.2147 100.2 99.3427 100.2 99.4547 100.2C99.5667 100.184 99.6787 100.168 99.7907 100.152C99.9827 100.136 100.119 100.192 100.199 100.32C100.279 100.432 100.319 100.672 100.319 101.04C100.319 101.376 100.247 101.64 100.103 101.832C99.9587 102.008 99.7267 102.12 99.4067 102.168C99.2627 102.184 99.1107 102.192 98.9507 102.192C98.7907 102.208 98.6387 102.216 98.4947 102.216ZM107.441 102.216C106.161 102.216 105.057 101.976 104.129 101.496C103.217 101 102.505 100.304 101.993 99.408C101.497 98.496 101.249 97.416 101.249 96.168C101.249 94.952 101.497 93.888 101.993 92.976C102.489 92.064 103.169 91.352 104.033 90.84C104.897 90.328 105.881 90.072 106.985 90.072C107.801 90.072 108.529 90.208 109.169 90.48C109.809 90.736 110.353 91.12 110.801 91.632C111.265 92.128 111.609 92.736 111.833 93.456C112.073 94.176 112.193 94.984 112.193 95.88C112.193 96.152 112.113 96.36 111.953 96.504C111.793 96.632 111.553 96.696 111.233 96.696H103.169V95.208H110.561L110.153 95.544C110.153 94.744 110.033 94.064 109.793 93.504C109.569 92.944 109.225 92.52 108.761 92.232C108.313 91.928 107.753 91.776 107.081 91.776C106.329 91.776 105.689 91.952 105.161 92.304C104.649 92.656 104.257 93.144 103.985 93.768C103.713 94.392 103.577 95.12 103.577 95.952V96.096C103.577 97.504 103.905 98.568 104.561 99.288C105.233 99.992 106.201 100.344 107.465 100.344C107.945 100.344 108.449 100.28 108.977 100.152C109.521 100.024 110.033 99.808 110.513 99.504C110.785 99.344 111.025 99.272 111.233 99.288C111.457 99.304 111.633 99.376 111.761 99.504C111.905 99.632 111.993 99.792 112.025 99.984C112.057 100.176 112.025 100.376 111.929 100.584C111.833 100.776 111.665 100.952 111.425 101.112C110.881 101.48 110.249 101.76 109.529 101.952C108.809 102.128 108.113 102.216 107.441 102.216ZM119.3 102.216C118.276 102.216 117.372 101.976 116.588 101.496C115.82 101 115.22 100.296 114.788 99.384C114.356 98.456 114.14 97.376 114.14 96.144C114.14 94.88 114.356 93.8 114.788 92.904C115.22 92.008 115.82 91.312 116.588 90.816C117.372 90.32 118.276 90.072 119.3 90.072C120.324 90.072 121.204 90.328 121.94 90.84C122.692 91.336 123.196 92.008 123.452 92.856H123.188V86.136C123.188 85.736 123.292 85.432 123.5 85.224C123.708 85.016 124.004 84.912 124.388 84.912C124.772 84.912 125.068 85.016 125.276 85.224C125.5 85.432 125.612 85.736 125.612 86.136V100.944C125.612 101.328 125.508 101.632 125.3 101.856C125.092 102.064 124.796 102.168 124.412 102.168C124.028 102.168 123.732 102.064 123.524 101.856C123.316 101.632 123.212 101.328 123.212 100.944V98.832L123.476 99.36C123.22 100.224 122.716 100.92 121.964 101.448C121.228 101.96 120.34 102.216 119.3 102.216ZM119.924 100.344C120.58 100.344 121.156 100.184 121.652 99.864C122.148 99.544 122.532 99.072 122.804 98.448C123.092 97.824 123.236 97.056 123.236 96.144C123.236 94.768 122.932 93.728 122.324 93.024C121.716 92.32 120.916 91.968 119.924 91.968C119.252 91.968 118.668 92.128 118.172 92.448C117.676 92.752 117.284 93.216 116.996 93.84C116.724 94.464 116.588 95.232 116.588 96.144C116.588 97.504 116.892 98.544 117.5 99.264C118.108 99.984 118.916 100.344 119.924 100.344ZM134.32 106.536C133.456 106.536 132.616 106.448 131.8 106.272C131 106.096 130.272 105.808 129.616 105.408C129.376 105.28 129.216 105.12 129.136 104.928C129.056 104.752 129.032 104.568 129.064 104.376C129.112 104.184 129.2 104.016 129.328 103.872C129.456 103.728 129.608 103.632 129.784 103.584C129.976 103.536 130.176 103.568 130.384 103.68C131.088 104.064 131.752 104.32 132.376 104.448C133.016 104.592 133.608 104.664 134.152 104.664C135.272 104.664 136.112 104.376 136.672 103.8C137.232 103.24 137.512 102.408 137.512 101.304V98.856H137.728C137.488 99.736 136.984 100.432 136.216 100.944C135.448 101.456 134.56 101.712 133.552 101.712C132.496 101.712 131.576 101.472 130.792 100.992C130.008 100.496 129.4 99.816 128.968 98.952C128.536 98.072 128.32 97.048 128.32 95.88C128.32 95 128.44 94.208 128.68 93.504C128.936 92.8 129.288 92.192 129.736 91.68C130.2 91.168 130.752 90.776 131.392 90.504C132.048 90.216 132.768 90.072 133.552 90.072C134.576 90.072 135.464 90.328 136.216 90.84C136.984 91.352 137.48 92.048 137.704 92.928L137.464 93.336V91.344C137.464 90.944 137.568 90.64 137.776 90.432C138 90.224 138.296 90.12 138.664 90.12C139.048 90.12 139.344 90.224 139.552 90.432C139.76 90.64 139.864 90.944 139.864 91.344V101.016C139.864 102.84 139.392 104.216 138.448 105.144C137.504 106.072 136.128 106.536 134.32 106.536ZM134.128 99.816C134.832 99.816 135.432 99.656 135.928 99.336C136.424 99.016 136.808 98.56 137.08 97.968C137.352 97.376 137.488 96.68 137.488 95.88C137.488 94.68 137.184 93.728 136.576 93.024C135.984 92.32 135.168 91.968 134.128 91.968C133.44 91.968 132.848 92.128 132.352 92.448C131.856 92.768 131.464 93.224 131.176 93.816C130.904 94.392 130.768 95.08 130.768 95.88C130.768 97.096 131.072 98.056 131.68 98.76C132.288 99.464 133.104 99.816 134.128 99.816ZM148.762 102.216C147.482 102.216 146.378 101.976 145.45 101.496C144.538 101 143.826 100.304 143.314 99.408C142.818 98.496 142.57 97.416 142.57 96.168C142.57 94.952 142.818 93.888 143.314 92.976C143.81 92.064 144.49 91.352 145.354 90.84C146.218 90.328 147.202 90.072 148.306 90.072C149.122 90.072 149.85 90.208 150.49 90.48C151.13 90.736 151.674 91.12 152.122 91.632C152.586 92.128 152.93 92.736 153.154 93.456C153.394 94.176 153.514 94.984 153.514 95.88C153.514 96.152 153.434 96.36 153.274 96.504C153.114 96.632 152.874 96.696 152.554 96.696H144.49V95.208H151.882L151.474 95.544C151.474 94.744 151.354 94.064 151.114 93.504C150.89 92.944 150.546 92.52 150.082 92.232C149.634 91.928 149.074 91.776 148.402 91.776C147.65 91.776 147.01 91.952 146.482 92.304C145.97 92.656 145.578 93.144 145.306 93.768C145.034 94.392 144.898 95.12 144.898 95.952V96.096C144.898 97.504 145.226 98.568 145.882 99.288C146.554 99.992 147.522 100.344 148.786 100.344C149.266 100.344 149.77 100.28 150.298 100.152C150.842 100.024 151.354 99.808 151.834 99.504C152.106 99.344 152.346 99.272 152.554 99.288C152.778 99.304 152.954 99.376 153.082 99.504C153.226 99.632 153.314 99.792 153.346 99.984C153.378 100.176 153.346 100.376 153.25 100.584C153.154 100.776 152.986 100.952 152.746 101.112C152.202 101.48 151.57 101.76 150.85 101.952C150.13 102.128 149.434 102.216 148.762 102.216ZM164.093 102C163.661 102 163.325 101.888 163.085 101.664C162.861 101.424 162.749 101.088 162.749 100.656V86.424C162.749 85.992 162.861 85.664 163.085 85.44C163.325 85.2 163.661 85.08 164.093 85.08H172.853C173.189 85.08 173.445 85.168 173.621 85.344C173.797 85.504 173.885 85.744 173.885 86.064C173.885 86.4 173.797 86.656 173.621 86.832C173.445 87.008 173.189 87.096 172.853 87.096H165.149V92.4H172.325C172.677 92.4 172.933 92.488 173.093 92.664C173.269 92.84 173.357 93.088 173.357 93.408C173.357 93.744 173.269 94 173.093 94.176C172.933 94.336 172.677 94.416 172.325 94.416H165.149V99.984H172.853C173.189 99.984 173.445 100.072 173.621 100.248C173.797 100.424 173.885 100.672 173.885 100.992C173.885 101.328 173.797 101.584 173.621 101.76C173.445 101.92 173.189 102 172.853 102H164.093ZM177.817 102.168C177.433 102.168 177.137 102.064 176.929 101.856C176.721 101.632 176.617 101.328 176.617 100.944V91.344C176.617 90.944 176.721 90.64 176.929 90.432C177.137 90.224 177.425 90.12 177.793 90.12C178.177 90.12 178.465 90.224 178.657 90.432C178.865 90.64 178.969 90.944 178.969 91.344V93.216L178.705 92.784C179.057 91.888 179.609 91.216 180.361 90.768C181.113 90.304 181.977 90.072 182.953 90.072C183.881 90.072 184.649 90.248 185.257 90.6C185.881 90.936 186.345 91.456 186.649 92.16C186.953 92.848 187.105 93.72 187.105 94.776V100.944C187.105 101.328 187.001 101.632 186.793 101.856C186.585 102.064 186.289 102.168 185.905 102.168C185.505 102.168 185.201 102.064 184.993 101.856C184.785 101.632 184.681 101.328 184.681 100.944V94.92C184.681 93.912 184.481 93.176 184.081 92.712C183.697 92.248 183.089 92.016 182.257 92.016C181.281 92.016 180.497 92.32 179.905 92.928C179.329 93.536 179.041 94.352 179.041 95.376V100.944C179.041 101.76 178.633 102.168 177.817 102.168ZM195.749 106.536C194.885 106.536 194.045 106.448 193.229 106.272C192.429 106.096 191.701 105.808 191.045 105.408C190.805 105.28 190.645 105.12 190.565 104.928C190.485 104.752 190.461 104.568 190.493 104.376C190.541 104.184 190.629 104.016 190.757 103.872C190.885 103.728 191.037 103.632 191.213 103.584C191.405 103.536 191.605 103.568 191.813 103.68C192.517 104.064 193.181 104.32 193.805 104.448C194.445 104.592 195.037 104.664 195.581 104.664C196.701 104.664 197.541 104.376 198.101 103.8C198.661 103.24 198.941 102.408 198.941 101.304V98.856H199.157C198.917 99.736 198.413 100.432 197.645 100.944C196.877 101.456 195.989 101.712 194.981 101.712C193.925 101.712 193.005 101.472 192.221 100.992C191.437 100.496 190.829 99.816 190.397 98.952C189.965 98.072 189.749 97.048 189.749 95.88C189.749 95 189.869 94.208 190.109 93.504C190.365 92.8 190.717 92.192 191.165 91.68C191.629 91.168 192.181 90.776 192.821 90.504C193.477 90.216 194.197 90.072 194.981 90.072C196.005 90.072 196.893 90.328 197.645 90.84C198.413 91.352 198.909 92.048 199.133 92.928L198.893 93.336V91.344C198.893 90.944 198.997 90.64 199.205 90.432C199.429 90.224 199.725 90.12 200.093 90.12C200.477 90.12 200.773 90.224 200.981 90.432C201.189 90.64 201.293 90.944 201.293 91.344V101.016C201.293 102.84 200.821 104.216 199.877 105.144C198.933 106.072 197.557 106.536 195.749 106.536ZM195.557 99.816C196.261 99.816 196.861 99.656 197.357 99.336C197.853 99.016 198.237 98.56 198.509 97.968C198.781 97.376 198.917 96.68 198.917 95.88C198.917 94.68 198.613 93.728 198.005 93.024C197.413 92.32 196.597 91.968 195.557 91.968C194.869 91.968 194.277 92.128 193.781 92.448C193.285 92.768 192.893 93.224 192.605 93.816C192.333 94.392 192.197 95.08 192.197 95.88C192.197 97.096 192.501 98.056 193.109 98.76C193.717 99.464 194.533 99.816 195.557 99.816ZM205.895 102.144C205.511 102.144 205.215 102.032 205.007 101.808C204.799 101.568 204.695 101.24 204.695 100.824V91.464C204.695 91.048 204.799 90.728 205.007 90.504C205.215 90.28 205.511 90.168 205.895 90.168C206.279 90.168 206.575 90.28 206.783 90.504C207.007 90.728 207.119 91.048 207.119 91.464V100.824C207.119 101.24 207.015 101.568 206.807 101.808C206.599 102.032 206.295 102.144 205.895 102.144ZM205.895 87.672C205.415 87.672 205.039 87.552 204.767 87.312C204.511 87.072 204.383 86.736 204.383 86.304C204.383 85.856 204.511 85.52 204.767 85.296C205.039 85.056 205.415 84.936 205.895 84.936C206.375 84.936 206.743 85.056 206.999 85.296C207.271 85.52 207.407 85.856 207.407 86.304C207.407 86.736 207.271 87.072 206.999 87.312C206.743 87.552 206.375 87.672 205.895 87.672ZM211.731 102.168C211.347 102.168 211.051 102.064 210.843 101.856C210.635 101.632 210.531 101.328 210.531 100.944V91.344C210.531 90.944 210.635 90.64 210.843 90.432C211.051 90.224 211.339 90.12 211.707 90.12C212.091 90.12 212.379 90.224 212.571 90.432C212.779 90.64 212.883 90.944 212.883 91.344V93.216L212.619 92.784C212.971 91.888 213.523 91.216 214.275 90.768C215.027 90.304 215.891 90.072 216.867 90.072C217.795 90.072 218.563 90.248 219.171 90.6C219.795 90.936 220.259 91.456 220.563 92.16C220.867 92.848 221.019 93.72 221.019 94.776V100.944C221.019 101.328 220.915 101.632 220.707 101.856C220.499 102.064 220.203 102.168 219.819 102.168C219.419 102.168 219.115 102.064 218.907 101.856C218.699 101.632 218.595 101.328 218.595 100.944V94.92C218.595 93.912 218.395 93.176 217.995 92.712C217.611 92.248 217.003 92.016 216.171 92.016C215.195 92.016 214.411 92.32 213.819 92.928C213.243 93.536 212.955 94.352 212.955 95.376V100.944C212.955 101.76 212.547 102.168 211.731 102.168ZM229.856 102.216C228.576 102.216 227.472 101.976 226.544 101.496C225.632 101 224.92 100.304 224.408 99.408C223.912 98.496 223.664 97.416 223.664 96.168C223.664 94.952 223.912 93.888 224.408 92.976C224.904 92.064 225.584 91.352 226.448 90.84C227.312 90.328 228.296 90.072 229.4 90.072C230.216 90.072 230.944 90.208 231.584 90.48C232.224 90.736 232.768 91.12 233.216 91.632C233.68 92.128 234.024 92.736 234.248 93.456C234.488 94.176 234.608 94.984 234.608 95.88C234.608 96.152 234.528 96.36 234.368 96.504C234.208 96.632 233.968 96.696 233.648 96.696H225.584V95.208H232.976L232.568 95.544C232.568 94.744 232.448 94.064 232.208 93.504C231.984 92.944 231.64 92.52 231.176 92.232C230.728 91.928 230.168 91.776 229.496 91.776C228.744 91.776 228.104 91.952 227.576 92.304C227.064 92.656 226.672 93.144 226.4 93.768C226.128 94.392 225.992 95.12 225.992 95.952V96.096C225.992 97.504 226.32 98.568 226.976 99.288C227.648 99.992 228.616 100.344 229.88 100.344C230.36 100.344 230.864 100.28 231.392 100.152C231.936 100.024 232.448 99.808 232.928 99.504C233.2 99.344 233.44 99.272 233.648 99.288C233.872 99.304 234.048 99.376 234.176 99.504C234.32 99.632 234.408 99.792 234.44 99.984C234.472 100.176 234.44 100.376 234.344 100.584C234.248 100.776 234.08 100.952 233.84 101.112C233.296 101.48 232.664 101.76 231.944 101.952C231.224 102.128 230.528 102.216 229.856 102.216Z" fill="white"/>
<defs>
<clipPath id="clip0_289_183">
<rect width="265.663" height="70" fill="white"/>
</clipPath>
</defs>
</svg>
