<svg width="372" height="97" viewBox="0 0 372 97" fill="none" xmlns="http://www.w3.org/2000/svg">
<path d="M3.144 24.168C2.792 24.168 2.52 24.072 2.328 23.88C2.136 23.672 2.04 23.384 2.04 23.016V8.208C2.04 7.84 2.136 7.56 2.328 7.368C2.536 7.176 2.816 7.08 3.168 7.08H8.88C10.704 7.08 12.104 7.528 13.08 8.424C14.072 9.32 14.568 10.576 14.568 12.192C14.568 13.824 14.072 15.088 13.08 15.984C12.104 16.88 10.704 17.328 8.88 17.328H4.272V23.016C4.272 23.384 4.176 23.672 3.984 23.88C3.808 24.072 3.528 24.168 3.144 24.168ZM4.272 15.528H8.592C9.84 15.528 10.776 15.248 11.4 14.688C12.04 14.112 12.36 13.28 12.36 12.192C12.36 11.104 12.04 10.288 11.4 9.744C10.776 9.184 9.84 8.904 8.592 8.904H4.272V15.528ZM21.4622 24.216C20.3102 24.216 19.3102 23.968 18.4622 23.472C17.6142 22.976 16.9582 22.272 16.4942 21.36C16.0302 20.448 15.7982 19.376 15.7982 18.144C15.7982 17.216 15.9262 16.384 16.1822 15.648C16.4542 14.896 16.8382 14.256 17.3342 13.728C17.8302 13.2 18.4222 12.8 19.1102 12.528C19.8142 12.24 20.5982 12.096 21.4622 12.096C22.6142 12.096 23.6142 12.344 24.4622 12.84C25.3102 13.336 25.9662 14.04 26.4302 14.952C26.8942 15.848 27.1262 16.912 27.1262 18.144C27.1262 19.072 26.9902 19.912 26.7182 20.664C26.4622 21.416 26.0862 22.056 25.5902 22.584C25.0942 23.112 24.4942 23.52 23.7902 23.808C23.1022 24.08 22.3262 24.216 21.4622 24.216ZM21.4622 22.488C22.1662 22.488 22.7742 22.32 23.2862 21.984C23.8142 21.648 24.2142 21.16 24.4862 20.52C24.7742 19.88 24.9182 19.088 24.9182 18.144C24.9182 16.736 24.6062 15.664 23.9822 14.928C23.3582 14.192 22.5182 13.824 21.4622 13.824C20.7742 13.824 20.1662 13.992 19.6382 14.328C19.1262 14.648 18.7262 15.128 18.4382 15.768C18.1502 16.408 18.0062 17.2 18.0062 18.144C18.0062 19.552 18.3182 20.632 18.9422 21.384C19.5822 22.12 20.4222 22.488 21.4622 22.488ZM33.8884 24.168C33.5844 24.168 33.3204 24.096 33.0964 23.952C32.8724 23.792 32.6964 23.536 32.5684 23.184L28.9924 13.656C28.8804 13.352 28.8484 13.088 28.8964 12.864C28.9444 12.64 29.0564 12.464 29.2324 12.336C29.4084 12.208 29.6404 12.144 29.9284 12.144C30.2004 12.144 30.4164 12.208 30.5764 12.336C30.7364 12.464 30.8724 12.696 30.9844 13.032L34.2484 22.248H33.6724L37.0324 12.984C37.1444 12.696 37.2884 12.488 37.4644 12.36C37.6564 12.216 37.8884 12.144 38.1604 12.144C38.4484 12.144 38.6884 12.216 38.8804 12.36C39.0724 12.488 39.2084 12.696 39.2884 12.984L42.6004 22.248H42.0484L45.3604 12.984C45.4724 12.664 45.6164 12.448 45.7924 12.336C45.9684 12.208 46.1844 12.144 46.4404 12.144C46.7284 12.144 46.9444 12.216 47.0884 12.36C47.2324 12.504 47.3124 12.696 47.3284 12.936C47.3604 13.16 47.3284 13.4 47.2324 13.656L43.6564 23.184C43.5444 23.52 43.3684 23.768 43.1284 23.928C42.9044 24.088 42.6404 24.168 42.3364 24.168C42.0324 24.168 41.7604 24.088 41.5204 23.928C41.2964 23.768 41.1204 23.52 40.9924 23.184L37.5604 13.776H38.6644L35.2324 23.184C35.1044 23.52 34.9284 23.768 34.7044 23.928C34.4804 24.088 34.2084 24.168 33.8884 24.168ZM55.1989 24.216C53.9349 24.216 52.8469 23.976 51.9349 23.496C51.0389 23 50.3429 22.304 49.8469 21.408C49.3509 20.496 49.1029 19.424 49.1029 18.192C49.1029 16.976 49.3429 15.912 49.8229 15C50.3189 14.088 50.9909 13.376 51.8389 12.864C52.7029 12.352 53.6869 12.096 54.7909 12.096C55.5749 12.096 56.2789 12.232 56.9029 12.504C57.5429 12.76 58.0869 13.136 58.5349 13.632C58.9829 14.128 59.3189 14.736 59.5429 15.456C59.7829 16.16 59.9029 16.96 59.9029 17.856C59.9029 18.112 59.8229 18.312 59.6629 18.456C59.5189 18.584 59.3029 18.648 59.0149 18.648H50.8069V17.256H58.4629L58.0549 17.592C58.0549 16.76 57.9269 16.056 57.6709 15.48C57.4309 14.888 57.0709 14.44 56.5909 14.136C56.1269 13.832 55.5429 13.68 54.8389 13.68C54.0709 13.68 53.4149 13.864 52.8709 14.232C52.3269 14.584 51.9109 15.088 51.6229 15.744C51.3349 16.384 51.1909 17.128 51.1909 17.976V18.12C51.1909 19.56 51.5349 20.648 52.2229 21.384C52.9109 22.12 53.9029 22.488 55.1989 22.488C55.7109 22.488 56.2309 22.424 56.7589 22.296C57.3029 22.168 57.8229 21.936 58.3189 21.6C58.5589 21.456 58.7749 21.392 58.9669 21.408C59.1749 21.408 59.3429 21.472 59.4709 21.6C59.5989 21.712 59.6789 21.856 59.7109 22.032C59.7429 22.192 59.7189 22.368 59.6389 22.56C59.5589 22.752 59.4069 22.92 59.1829 23.064C58.6549 23.432 58.0229 23.72 57.2869 23.928C56.5669 24.12 55.8709 24.216 55.1989 24.216ZM63.7472 24.168C63.3792 24.168 63.0992 24.072 62.9072 23.88C62.7152 23.688 62.6192 23.408 62.6192 23.04V13.248C62.6192 12.88 62.7152 12.608 62.9072 12.432C63.0992 12.24 63.3632 12.144 63.6992 12.144C64.0352 12.144 64.2912 12.24 64.4672 12.432C64.6592 12.608 64.7552 12.88 64.7552 13.248V15.096H64.5152C64.7712 14.136 65.2512 13.408 65.9552 12.912C66.6592 12.416 67.5472 12.136 68.6192 12.072C68.8752 12.056 69.0832 12.12 69.2432 12.264C69.4032 12.392 69.4912 12.616 69.5072 12.936C69.5232 13.24 69.4512 13.488 69.2912 13.68C69.1312 13.856 68.8832 13.96 68.5472 13.992L68.1152 14.016C67.0592 14.128 66.2432 14.472 65.6672 15.048C65.1072 15.624 64.8272 16.416 64.8272 17.424V23.04C64.8272 23.408 64.7312 23.688 64.5392 23.88C64.3632 24.072 64.0992 24.168 63.7472 24.168ZM76.6208 24.216C75.3568 24.216 74.2688 23.976 73.3568 23.496C72.4608 23 71.7648 22.304 71.2688 21.408C70.7728 20.496 70.5248 19.424 70.5248 18.192C70.5248 16.976 70.7648 15.912 71.2448 15C71.7408 14.088 72.4128 13.376 73.2608 12.864C74.1248 12.352 75.1088 12.096 76.2128 12.096C76.9968 12.096 77.7008 12.232 78.3248 12.504C78.9648 12.76 79.5088 13.136 79.9568 13.632C80.4048 14.128 80.7408 14.736 80.9648 15.456C81.2048 16.16 81.3248 16.96 81.3248 17.856C81.3248 18.112 81.2448 18.312 81.0848 18.456C80.9408 18.584 80.7248 18.648 80.4368 18.648H72.2288V17.256H79.8848L79.4768 17.592C79.4768 16.76 79.3488 16.056 79.0928 15.48C78.8528 14.888 78.4928 14.44 78.0128 14.136C77.5488 13.832 76.9648 13.68 76.2608 13.68C75.4928 13.68 74.8368 13.864 74.2928 14.232C73.7488 14.584 73.3328 15.088 73.0448 15.744C72.7568 16.384 72.6128 17.128 72.6128 17.976V18.12C72.6128 19.56 72.9568 20.648 73.6448 21.384C74.3328 22.12 75.3248 22.488 76.6208 22.488C77.1328 22.488 77.6528 22.424 78.1808 22.296C78.7248 22.168 79.2448 21.936 79.7408 21.6C79.9808 21.456 80.1968 21.392 80.3888 21.408C80.5968 21.408 80.7648 21.472 80.8928 21.6C81.0208 21.712 81.1008 21.856 81.1328 22.032C81.1648 22.192 81.1408 22.368 81.0608 22.56C80.9808 22.752 80.8288 22.92 80.6048 23.064C80.0768 23.432 79.4448 23.72 78.7088 23.928C77.9888 24.12 77.2928 24.216 76.6208 24.216ZM88.5051 24.216C87.4811 24.216 86.5771 23.976 85.7931 23.496C85.0251 23 84.4251 22.296 83.9931 21.384C83.5611 20.456 83.3451 19.376 83.3451 18.144C83.3451 16.896 83.5531 15.824 83.9691 14.928C84.4011 14.016 85.0011 13.32 85.7691 12.84C86.5531 12.344 87.4651 12.096 88.5051 12.096C89.5451 12.096 90.4411 12.36 91.1931 12.888C91.9451 13.4 92.4491 14.088 92.7051 14.952H92.4411V8.016C92.4411 7.648 92.5291 7.376 92.7051 7.2C92.8971 7.008 93.1691 6.912 93.5211 6.912C93.8731 6.912 94.1451 7.008 94.3371 7.2C94.5291 7.376 94.6251 7.648 94.6251 8.016V23.04C94.6251 23.408 94.5291 23.688 94.3371 23.88C94.1451 24.072 93.8731 24.168 93.5211 24.168C93.1851 24.168 92.9211 24.072 92.7291 23.88C92.5371 23.688 92.4411 23.408 92.4411 23.04V20.856L92.7051 21.288C92.4651 22.184 91.9611 22.896 91.1931 23.424C90.4411 23.952 89.5451 24.216 88.5051 24.216ZM89.0091 22.488C89.7131 22.488 90.3211 22.32 90.8331 21.984C91.3611 21.648 91.7611 21.16 92.0331 20.52C92.3211 19.88 92.4651 19.088 92.4651 18.144C92.4651 16.736 92.1531 15.664 91.5291 14.928C90.9051 14.192 90.0651 13.824 89.0091 13.824C88.3211 13.824 87.7131 13.992 87.1851 14.328C86.6731 14.648 86.2731 15.128 85.9851 15.768C85.6971 16.408 85.5531 17.2 85.5531 18.144C85.5531 19.552 85.8651 20.632 86.4891 21.384C87.1291 22.12 87.9691 22.488 89.0091 22.488ZM110.505 24.216C109.449 24.216 108.545 23.952 107.793 23.424C107.041 22.896 106.537 22.184 106.281 21.288L106.545 20.928V23.04C106.545 23.408 106.449 23.688 106.257 23.88C106.081 24.072 105.817 24.168 105.465 24.168C105.129 24.168 104.865 24.072 104.673 23.88C104.481 23.688 104.385 23.408 104.385 23.04V8.016C104.385 7.648 104.481 7.376 104.673 7.2C104.865 7.008 105.129 6.912 105.465 6.912C105.817 6.912 106.089 7.008 106.281 7.2C106.473 7.376 106.569 7.648 106.569 8.016V14.952H106.305C106.561 14.088 107.065 13.4 107.817 12.888C108.569 12.36 109.465 12.096 110.505 12.096C111.545 12.096 112.449 12.344 113.217 12.84C114.001 13.32 114.601 14.016 115.017 14.928C115.449 15.824 115.665 16.896 115.665 18.144C115.665 19.376 115.449 20.456 115.017 21.384C114.585 22.296 113.985 23 113.217 23.496C112.449 23.976 111.545 24.216 110.505 24.216ZM110.001 22.488C110.689 22.488 111.289 22.32 111.801 21.984C112.329 21.648 112.737 21.16 113.025 20.52C113.313 19.88 113.457 19.088 113.457 18.144C113.457 16.736 113.145 15.664 112.521 14.928C111.897 14.192 111.057 13.824 110.001 13.824C109.297 13.824 108.681 13.992 108.153 14.328C107.641 14.648 107.241 15.128 106.953 15.768C106.681 16.408 106.545 17.2 106.545 18.144C106.545 19.552 106.857 20.632 107.481 21.384C108.105 22.12 108.945 22.488 110.001 22.488ZM120.971 28.488C120.715 28.488 120.499 28.416 120.323 28.272C120.163 28.144 120.067 27.96 120.035 27.72C120.019 27.496 120.067 27.256 120.179 27L121.811 23.304V24.216L117.275 13.656C117.163 13.384 117.123 13.136 117.155 12.912C117.187 12.688 117.291 12.504 117.467 12.36C117.659 12.216 117.915 12.144 118.235 12.144C118.507 12.144 118.723 12.208 118.883 12.336C119.043 12.464 119.195 12.688 119.339 13.008L123.107 22.296H122.435L126.275 13.008C126.403 12.688 126.555 12.464 126.731 12.336C126.907 12.208 127.147 12.144 127.451 12.144C127.723 12.144 127.931 12.216 128.075 12.36C128.235 12.504 128.331 12.688 128.363 12.912C128.395 13.136 128.347 13.376 128.219 13.632L122.171 27.624C122.011 27.96 121.843 28.184 121.667 28.296C121.507 28.424 121.275 28.488 120.971 28.488Z" fill="white"/>
<g clip-path="url(#clip0_254_1045)">
<path d="M159.486 62.3846V62.7881H158.21V66.2308H157.686V62.7881H156.41V62.3846H159.486Z" fill="#006CD2"/>
<path d="M159.851 66.2308V62.3846H160.517L162.005 65.5934L163.465 62.3846H164.103V66.2308H163.635V63.0759L162.195 66.2308H161.781L160.318 63.0759V66.2308H159.851Z" fill="#006CD2"/>
<path d="M28.4786 70.7749C28.4786 79.6295 32.4776 84.0567 40.4758 84.0567C48.3056 84.0567 52.2206 79.6295 52.2206 70.7749C52.2206 62.0427 48.3056 57.6766 40.4758 57.6766C32.4776 57.6766 28.4786 62.0427 28.4786 70.7749ZM24.0054 70.9126C24.0054 59.7947 29.4955 54.2357 40.4758 54.2357C51.2878 54.2357 56.6938 59.7947 56.6938 70.9126C56.6938 81.9693 51.2878 87.4976 40.4758 87.4976C29.4955 87.4976 24.0054 81.9693 24.0054 70.9126Z" fill="#006CD2"/>
<path d="M60.7963 87.2682V63.1821H63.6637L64.4207 66.2559C66.5312 64.2067 69.0698 63.1821 72.0366 63.1821V66.7146C69.1614 66.7146 66.8294 67.7317 65.04 69.7655V87.2682H60.7963Z" fill="#006CD2"/>
<path d="M78.8917 63.182V87.2682H74.6479V63.182H78.8917ZM78.8917 54.4651V58.4795H74.6479V54.4651H78.8917Z" fill="#006CD2"/>
<path d="M100.244 67.2651C98.7917 66.8982 96.9948 66.7146 94.8537 66.7146C89.7307 66.7146 87.1691 69.4903 87.1691 75.0416C87.1691 80.7458 89.593 83.598 94.4408 83.598C96.643 83.598 98.5776 83.185 100.244 82.3592V67.2651ZM104.488 87.2682C104.488 93.0795 100.795 95.9851 93.4086 95.9851C90.4418 95.9851 87.8114 95.6028 85.5174 94.8382V91.3973C87.8573 92.1619 90.503 92.5442 93.4545 92.5442C97.9812 92.5442 100.244 90.7855 100.244 87.2682V86.1213C98.4399 86.8859 96.4977 87.2682 94.418 87.2682C86.8021 87.2682 82.9941 83.208 82.9941 75.0875C82.9941 67.1505 87.0085 63.1821 95.0373 63.1821C98.2946 63.1821 101.445 63.5108 104.488 64.1684V87.2682Z" fill="#006CD2"/>
<path d="M119.212 63.1821C126.063 63.1821 129.488 66.5694 129.488 73.3441C129.488 74.3076 129.419 75.3399 129.282 76.4409H112.376C112.376 81.3651 115.251 83.8273 121.001 83.8273C123.738 83.8273 126.17 83.5216 128.295 82.9098V86.3507C126.17 86.9623 123.585 87.2682 120.542 87.2682C112.269 87.2682 108.132 83.1621 108.132 74.9499C108.132 67.1046 111.825 63.1821 119.212 63.1821ZM112.376 72.9082H125.405C125.313 68.6875 123.249 66.5771 119.212 66.5771C114.93 66.5771 112.651 68.6875 112.376 72.9082Z" fill="#006CD2"/>
<path d="M133.086 87.2682V63.1821H135.954L136.71 66.2559C139.173 64.2067 141.88 63.1821 144.831 63.1821C150.841 63.1821 153.846 66.1718 153.846 72.1513V87.2682H149.603V72.0825C149.603 68.504 147.821 66.7146 144.258 66.7146C141.826 66.7146 139.517 67.7317 137.33 69.7655V87.2682H133.086Z" fill="#006CD2"/>
<path d="M0 50.3557C0 48.5024 1.5024 47 3.35568 47H14.5413C16.3946 47 17.8971 48.5024 17.8971 50.3557V61.5413C17.8971 63.3946 16.3946 64.8971 14.5413 64.8971H3.35568C1.5024 64.8971 0 63.3946 0 61.5413V50.3557Z" fill="#006CD2"/>
</g>
<g clip-path="url(#clip1_254_1045)">
<path d="M291.266 47.6977V42L310.085 49.5581V54.2093L291.266 61.7674V55.9535L302.254 51.8837L291.266 47.6977Z" fill="#A100FF"/>
<path d="M187.35 92C183.376 92 180.103 90.0233 180.103 85.6046V85.3721C180.103 80.0233 184.778 78.1628 190.506 78.1628H193.194V77.1163C193.194 74.907 192.259 73.6279 189.921 73.6279C187.817 73.6279 186.765 74.7907 186.648 76.4186H180.804C181.271 71.5349 185.129 69.2093 190.272 69.2093C195.532 69.2093 199.39 71.4186 199.39 76.8837V91.5349H193.428V88.9767C192.259 90.6046 190.272 92 187.35 92ZM193.194 84.3256V82.2326H190.74C187.7 82.2326 186.181 83.0465 186.181 85.0233V85.2558C186.181 86.7674 187.116 87.814 189.22 87.814C191.324 87.6977 193.194 86.5349 193.194 84.3256ZM213.3 92C207.221 92 202.779 88.2791 202.779 80.8372V80.4884C202.779 73.0465 207.455 69.093 213.3 69.093C218.326 69.093 222.417 71.6512 222.885 77.3488H217.04C216.689 75.2558 215.521 73.8605 213.417 73.8605C210.845 73.8605 208.975 75.9535 208.975 80.2558V80.9535C208.975 85.3721 210.611 87.3488 213.417 87.3488C215.521 87.3488 217.04 85.8372 217.391 83.3953H223.002C222.651 88.5116 219.261 92 213.3 92ZM236.21 92C230.132 92 225.69 88.2791 225.69 80.8372V80.4884C225.69 73.0465 230.366 69.093 236.21 69.093C241.237 69.093 245.328 71.6512 245.795 77.3488H239.951C239.6 75.2558 238.431 73.8605 236.327 73.8605C233.756 73.8605 231.885 75.9535 231.885 80.2558V80.9535C231.885 85.3721 233.522 87.3488 236.327 87.3488C238.431 87.3488 239.951 85.8372 240.301 83.3953H245.912C245.562 88.5116 242.172 92 236.21 92ZM259.238 92C252.926 92 248.601 88.2791 248.601 80.9535V80.4884C248.601 73.1628 253.159 69.093 259.121 69.093C264.615 69.093 269.174 72.1163 269.174 79.4419V82.1163H254.796C255.03 86.0698 256.783 87.5814 259.355 87.5814C261.693 87.5814 262.978 86.3023 263.446 84.7907H269.174C268.472 88.8605 264.965 92 259.238 92ZM254.913 78.0465H263.095C262.978 74.7907 261.459 73.3953 259.004 73.3953C257.134 73.5116 255.38 74.5581 254.913 78.0465ZM272.914 69.6744H279.109V72.9302C280.161 70.8372 282.382 69.2093 285.772 69.2093C289.746 69.2093 292.435 71.6512 292.435 76.8837V91.5349H286.24V77.8139C286.24 75.2558 285.188 74.093 282.967 74.093C280.863 74.093 279.109 75.3721 279.109 78.1628V91.5349H272.914V69.6744ZM303.773 63.0465V69.6744H307.981V74.2093H303.773V84.5581C303.773 86.186 304.475 87 305.994 87C306.929 87 307.514 86.8837 308.098 86.6512V91.4186C307.397 91.6512 306.111 91.8837 304.592 91.8837C299.799 91.8837 297.578 89.6744 297.578 85.2558V74.2093H295.007V69.6744H297.578V65.6046L303.773 63.0465ZM331.126 91.5349H325.048V88.2791C323.995 90.3721 321.891 92 318.618 92C314.644 92 311.722 89.5581 311.722 84.4419V69.6744H317.917V83.6279C317.917 86.186 318.969 87.3488 321.073 87.3488C323.177 87.3488 324.931 85.9535 324.931 83.2791V69.6744H331.126V91.5349ZM335.685 69.6744H341.88V73.7442C343.166 70.8372 345.27 69.4419 348.543 69.4419V75.4884C344.335 75.4884 341.88 76.7674 341.88 80.3721V91.6512H335.685V69.6744ZM361.05 92C354.738 92 350.413 88.2791 350.413 80.9535V80.4884C350.413 73.1628 354.972 69.093 360.933 69.093C366.427 69.093 370.986 72.1163 370.986 79.4419V82.1163H356.725C356.959 86.0698 358.712 87.5814 361.284 87.5814C363.622 87.5814 364.907 86.3023 365.375 84.7907H371.103C370.167 88.8605 366.778 92 361.05 92ZM356.608 78.0465H364.907C364.79 74.7907 363.271 73.3953 360.816 73.3953C358.946 73.5116 357.193 74.5581 356.608 78.0465Z" fill="white"/>
</g>
<defs>
<clipPath id="clip0_254_1045">
<rect width="164.103" height="50" fill="white" transform="translate(0 47)"/>
</clipPath>
<clipPath id="clip1_254_1045">
<rect width="191" height="50" fill="white" transform="translate(180.103 42)"/>
</clipPath>
</defs>
</svg>
