<svg width="328" height="143" viewBox="0 0 328 143" fill="none" xmlns="http://www.w3.org/2000/svg">
<g clip-path="url(#clip0_263_1346)">
<path d="M190.597 9.8V0L222.756 13V21L190.597 34V24L209.373 17L190.597 9.8Z" fill="#A100FF"/>
<path d="M13.0228 86C6.23145 86 0.638554 82.5999 0.638554 75V74.5999C0.638554 65.3999 8.62841 62.2 18.416 62.2H23.0101V60.4C23.0101 56.6 21.4122 54.4 17.4172 54.4C13.8218 54.4 12.0241 56.4 11.8244 59.2H1.83703C2.63602 50.8 9.22765 46.7999 18.0165 46.7999C27.0051 46.7999 33.5967 50.6 33.5967 60V85.1999H23.4096V80.8C21.4122 83.6 18.0165 86 13.0228 86ZM23.0101 72.8V69.1999H18.8155C13.6221 69.1999 11.0254 70.5999 11.0254 74V74.4C11.0254 77 12.6233 78.8 16.2188 78.8C19.8142 78.6 23.0101 76.6 23.0101 72.8ZM57.3665 86C46.9797 86 39.3893 79.6 39.3893 66.8V66.1999C39.3893 53.3999 47.3792 46.5999 57.3665 46.5999C65.9556 46.5999 72.9467 50.9999 73.7457 60.7999H63.7584C63.1592 57.1999 61.1617 54.7999 57.5663 54.7999C53.1718 54.7999 49.9759 58.4 49.9759 65.8V67C49.9759 74.5999 52.7724 78 57.5663 78C61.1617 78 63.7584 75.3999 64.3576 71.1999H73.9455C73.3462 79.9999 67.5536 86 57.3665 86ZM96.5168 86C86.13 86 78.5396 79.6 78.5396 66.8V66.1999C78.5396 53.3999 86.5295 46.5999 96.5168 46.5999C105.106 46.5999 112.097 50.9999 112.896 60.7999H102.909C102.309 57.1999 100.312 54.7999 96.7166 54.7999C92.3221 54.7999 89.1262 58.4 89.1262 65.8V67C89.1262 74.5999 91.9226 78 96.7166 78C100.312 78 102.909 75.3999 103.508 71.1999H113.096C112.497 79.9999 106.704 86 96.5168 86ZM135.867 86C125.081 86 117.69 79.6 117.69 67V66.1999C117.69 53.5999 125.48 46.5999 135.667 46.5999C145.055 46.5999 152.845 51.8 152.845 64.4V69H128.276C128.676 75.7999 131.672 78.4 136.067 78.4C140.062 78.4 142.259 76.1999 143.058 73.5999H152.845C151.647 80.5999 145.654 86 135.867 86ZM128.476 62H142.458C142.259 56.4 139.662 54 135.467 54C132.271 54.2 129.275 56 128.476 62ZM159.237 47.5999H169.824V53.2C171.621 49.6 175.417 46.7999 181.209 46.7999C188.001 46.7999 192.595 51 192.595 60V85.1999H182.008V61.5999C182.008 57.1999 180.211 55.2 176.415 55.2C172.82 55.2 169.824 57.4 169.824 62.2V85.1999H159.237V47.5999ZM211.97 36.2V47.5999H219.161V55.4H211.97V73.1999C211.97 75.9999 213.169 77.4 215.765 77.4C217.363 77.4 218.362 77.2 219.361 76.8V85C218.162 85.4 215.965 85.8 213.368 85.8C205.179 85.8 201.384 82 201.384 74.4V55.4H196.989V47.5999H201.384V40.5999L211.97 36.2ZM258.711 85.1999H248.324V79.5999C246.526 83.1999 242.931 86 237.338 86C230.547 86 225.553 81.7999 225.553 73V47.5999H236.14V71.5999C236.14 76 237.937 78 241.533 78C245.128 78 248.124 75.5999 248.124 71V47.5999H258.711V85.1999ZM266.501 47.5999H277.088V54.5999C279.285 49.5999 282.88 47.2 288.473 47.2V57.5999C281.282 57.5999 277.088 59.7999 277.088 66V85.4H266.501V47.5999ZM309.846 86C299.06 86 291.669 79.6 291.669 67V66.1999C291.669 53.5999 299.459 46.5999 309.646 46.5999C319.034 46.5999 326.824 51.8 326.824 64.4V69H302.455C302.855 75.7999 305.851 78.4 310.245 78.4C314.24 78.4 316.438 76.1999 317.237 73.5999H327.024C325.426 80.5999 319.634 86 309.846 86ZM302.256 62H316.438C316.238 56.4 313.641 54 309.446 54C306.251 54.2 303.254 56 302.256 62Z" fill="white"/>
</g>
<path d="M143.567 106.602C143.392 106.602 143.256 106.555 143.161 106.459C143.065 106.355 143.017 106.212 143.017 106.028V98.6461C143.017 98.4626 143.065 98.323 143.161 98.2273C143.264 98.1316 143.404 98.0838 143.579 98.0838H146.427C147.336 98.0838 148.034 98.3071 148.521 98.7538C149.015 99.2004 149.262 99.8266 149.262 100.632C149.262 101.446 149.015 102.076 148.521 102.523C148.034 102.969 147.336 103.193 146.427 103.193H144.13V106.028C144.13 106.212 144.082 106.355 143.986 106.459C143.898 106.555 143.759 106.602 143.567 106.602ZM144.13 102.295H146.283C146.905 102.295 147.372 102.156 147.683 101.876C148.002 101.589 148.162 101.175 148.162 100.632C148.162 100.09 148.002 99.683 147.683 99.4118C147.372 99.1326 146.905 98.993 146.283 98.993H144.13V102.295Z" fill="white"/>
<path d="M152.699 106.626C152.125 106.626 151.626 106.503 151.204 106.255C150.781 106.008 150.454 105.657 150.223 105.203C149.991 104.748 149.876 104.213 149.876 103.599C149.876 103.137 149.939 102.722 150.067 102.355C150.203 101.98 150.394 101.661 150.641 101.398C150.889 101.135 151.184 100.935 151.527 100.8C151.878 100.656 152.269 100.584 152.699 100.584C153.274 100.584 153.772 100.708 154.195 100.955C154.618 101.202 154.945 101.553 155.176 102.008C155.407 102.455 155.523 102.985 155.523 103.599C155.523 104.062 155.455 104.481 155.319 104.856C155.192 105.23 155.004 105.55 154.757 105.813C154.51 106.076 154.211 106.279 153.86 106.423C153.517 106.558 153.13 106.626 152.699 106.626ZM152.699 105.765C153.05 105.765 153.353 105.681 153.609 105.514C153.872 105.346 154.071 105.103 154.207 104.784C154.35 104.465 154.422 104.07 154.422 103.599C154.422 102.897 154.267 102.363 153.955 101.996C153.644 101.629 153.226 101.446 152.699 101.446C152.356 101.446 152.053 101.529 151.79 101.697C151.535 101.857 151.335 102.096 151.192 102.415C151.048 102.734 150.976 103.129 150.976 103.599C150.976 104.301 151.132 104.84 151.443 105.215C151.762 105.581 152.181 105.765 152.699 105.765Z" fill="white"/>
<path d="M158.894 106.602C158.742 106.602 158.611 106.566 158.499 106.495C158.387 106.415 158.3 106.287 158.236 106.112L156.453 101.362C156.397 101.21 156.381 101.079 156.405 100.967C156.429 100.855 156.485 100.768 156.573 100.704C156.661 100.64 156.776 100.608 156.92 100.608C157.055 100.608 157.163 100.64 157.243 100.704C157.323 100.768 157.39 100.883 157.446 101.051L159.073 105.645H158.786L160.461 101.027C160.517 100.883 160.589 100.78 160.677 100.716C160.772 100.644 160.888 100.608 161.024 100.608C161.167 100.608 161.287 100.644 161.382 100.716C161.478 100.78 161.546 100.883 161.586 101.027L163.237 105.645H162.962L164.613 101.027C164.669 100.867 164.74 100.76 164.828 100.704C164.916 100.64 165.024 100.608 165.151 100.608C165.295 100.608 165.402 100.644 165.474 100.716C165.546 100.788 165.586 100.883 165.594 101.003C165.61 101.115 165.594 101.234 165.546 101.362L163.763 106.112C163.708 106.279 163.62 106.403 163.5 106.483C163.388 106.562 163.257 106.602 163.105 106.602C162.954 106.602 162.818 106.562 162.699 106.483C162.587 106.403 162.499 106.279 162.435 106.112L160.724 101.422H161.275L159.564 106.112C159.5 106.279 159.412 106.403 159.301 106.483C159.189 106.562 159.053 106.602 158.894 106.602Z" fill="white"/>
<path d="M169.517 106.626C168.887 106.626 168.345 106.507 167.89 106.267C167.444 106.02 167.097 105.673 166.849 105.226C166.602 104.772 166.479 104.237 166.479 103.623C166.479 103.017 166.598 102.487 166.837 102.032C167.085 101.577 167.42 101.222 167.842 100.967C168.273 100.712 168.764 100.584 169.314 100.584C169.705 100.584 170.056 100.652 170.367 100.788C170.686 100.915 170.957 101.103 171.181 101.35C171.404 101.597 171.571 101.9 171.683 102.259C171.803 102.61 171.862 103.009 171.862 103.456C171.862 103.583 171.823 103.683 171.743 103.755C171.671 103.819 171.563 103.851 171.42 103.851H167.328V103.157H171.145L170.941 103.324C170.941 102.909 170.877 102.558 170.75 102.271C170.63 101.976 170.451 101.753 170.211 101.601C169.98 101.45 169.689 101.374 169.338 101.374C168.955 101.374 168.628 101.466 168.357 101.649C168.086 101.825 167.878 102.076 167.735 102.403C167.591 102.722 167.519 103.093 167.519 103.516V103.587C167.519 104.305 167.691 104.848 168.034 105.215C168.377 105.581 168.871 105.765 169.517 105.765C169.773 105.765 170.032 105.733 170.295 105.669C170.566 105.605 170.826 105.49 171.073 105.322C171.192 105.25 171.3 105.218 171.396 105.226C171.5 105.226 171.583 105.258 171.647 105.322C171.711 105.378 171.751 105.45 171.767 105.538C171.783 105.617 171.771 105.705 171.731 105.801C171.691 105.896 171.615 105.98 171.504 106.052C171.24 106.235 170.925 106.379 170.558 106.483C170.199 106.578 169.852 106.626 169.517 106.626Z" fill="white"/>
<path d="M173.779 106.602C173.595 106.602 173.456 106.555 173.36 106.459C173.264 106.363 173.217 106.223 173.217 106.04V101.159C173.217 100.975 173.264 100.84 173.36 100.752C173.456 100.656 173.587 100.608 173.755 100.608C173.922 100.608 174.05 100.656 174.138 100.752C174.234 100.84 174.281 100.975 174.281 101.159V102.08H174.162C174.289 101.601 174.529 101.238 174.88 100.991C175.231 100.744 175.673 100.604 176.208 100.572C176.335 100.564 176.439 100.596 176.519 100.668C176.599 100.732 176.642 100.844 176.65 101.003C176.658 101.155 176.622 101.278 176.543 101.374C176.463 101.462 176.339 101.514 176.172 101.529L175.956 101.541C175.43 101.597 175.023 101.769 174.736 102.056C174.457 102.343 174.317 102.738 174.317 103.24V106.04C174.317 106.223 174.269 106.363 174.174 106.459C174.086 106.555 173.954 106.602 173.779 106.602Z" fill="white"/>
<path d="M180.197 106.626C179.566 106.626 179.024 106.507 178.569 106.267C178.123 106.02 177.776 105.673 177.529 105.226C177.281 104.772 177.158 104.237 177.158 103.623C177.158 103.017 177.277 102.487 177.517 102.032C177.764 101.577 178.099 101.222 178.522 100.967C178.952 100.712 179.443 100.584 179.993 100.584C180.384 100.584 180.735 100.652 181.046 100.788C181.365 100.915 181.636 101.103 181.86 101.35C182.083 101.597 182.25 101.9 182.362 102.259C182.482 102.61 182.542 103.009 182.542 103.456C182.542 103.583 182.502 103.683 182.422 103.755C182.35 103.819 182.242 103.851 182.099 103.851H178.007V103.157H181.824L181.62 103.324C181.62 102.909 181.557 102.558 181.429 102.271C181.309 101.976 181.13 101.753 180.891 101.601C180.659 101.45 180.368 101.374 180.017 101.374C179.634 101.374 179.307 101.466 179.036 101.649C178.765 101.825 178.557 102.076 178.414 102.403C178.27 102.722 178.199 103.093 178.199 103.516V103.587C178.199 104.305 178.37 104.848 178.713 105.215C179.056 105.581 179.551 105.765 180.197 105.765C180.452 105.765 180.711 105.733 180.974 105.669C181.245 105.605 181.505 105.49 181.752 105.322C181.872 105.25 181.979 105.218 182.075 105.226C182.179 105.226 182.262 105.258 182.326 105.322C182.39 105.378 182.43 105.45 182.446 105.538C182.462 105.617 182.45 105.705 182.41 105.801C182.37 105.896 182.294 105.98 182.183 106.052C181.919 106.235 181.604 106.379 181.237 106.483C180.879 106.578 180.532 106.626 180.197 106.626Z" fill="white"/>
<path d="M186.121 106.626C185.611 106.626 185.16 106.507 184.769 106.267C184.386 106.02 184.087 105.669 183.872 105.215C183.656 104.752 183.549 104.213 183.549 103.599C183.549 102.977 183.652 102.443 183.86 101.996C184.075 101.541 184.374 101.194 184.757 100.955C185.148 100.708 185.603 100.584 186.121 100.584C186.64 100.584 187.086 100.716 187.461 100.979C187.836 101.234 188.087 101.577 188.215 102.008H188.083V98.5504C188.083 98.3669 188.127 98.2313 188.215 98.1436C188.311 98.0479 188.446 98 188.622 98C188.797 98 188.933 98.0479 189.028 98.1436C189.124 98.2313 189.172 98.3669 189.172 98.5504V106.04C189.172 106.223 189.124 106.363 189.028 106.459C188.933 106.555 188.797 106.602 188.622 106.602C188.454 106.602 188.323 106.555 188.227 106.459C188.131 106.363 188.083 106.223 188.083 106.04V104.951L188.215 105.167C188.095 105.613 187.844 105.968 187.461 106.231C187.086 106.495 186.64 106.626 186.121 106.626ZM186.372 105.765C186.723 105.765 187.026 105.681 187.282 105.514C187.545 105.346 187.744 105.103 187.88 104.784C188.023 104.465 188.095 104.07 188.095 103.599C188.095 102.897 187.94 102.363 187.629 101.996C187.318 101.629 186.899 101.446 186.372 101.446C186.029 101.446 185.726 101.529 185.463 101.697C185.208 101.857 185.008 102.096 184.865 102.415C184.721 102.734 184.649 103.129 184.649 103.599C184.649 104.301 184.805 104.84 185.116 105.215C185.435 105.581 185.854 105.765 186.372 105.765Z" fill="white"/>
<path d="M197.088 106.626C196.562 106.626 196.111 106.495 195.736 106.231C195.361 105.968 195.11 105.613 194.983 105.167L195.114 104.987V106.04C195.114 106.223 195.066 106.363 194.971 106.459C194.883 106.555 194.751 106.602 194.576 106.602C194.408 106.602 194.277 106.555 194.181 106.459C194.085 106.363 194.037 106.223 194.037 106.04V98.5504C194.037 98.3669 194.085 98.2313 194.181 98.1436C194.277 98.0479 194.408 98 194.576 98C194.751 98 194.887 98.0479 194.983 98.1436C195.078 98.2313 195.126 98.3669 195.126 98.5504V102.008H194.995C195.122 101.577 195.373 101.234 195.748 100.979C196.123 100.716 196.57 100.584 197.088 100.584C197.607 100.584 198.057 100.708 198.44 100.955C198.831 101.194 199.13 101.541 199.338 101.996C199.553 102.443 199.661 102.977 199.661 103.599C199.661 104.213 199.553 104.752 199.338 105.215C199.122 105.669 198.823 106.02 198.44 106.267C198.057 106.507 197.607 106.626 197.088 106.626ZM196.837 105.765C197.18 105.765 197.479 105.681 197.734 105.514C197.998 105.346 198.201 105.103 198.345 104.784C198.488 104.465 198.56 104.07 198.56 103.599C198.56 102.897 198.404 102.363 198.093 101.996C197.782 101.629 197.363 101.446 196.837 101.446C196.486 101.446 196.179 101.529 195.916 101.697C195.661 101.857 195.461 102.096 195.318 102.415C195.182 102.734 195.114 103.129 195.114 103.599C195.114 104.301 195.27 104.84 195.581 105.215C195.892 105.581 196.311 105.765 196.837 105.765Z" fill="white"/>
<path d="M202.306 108.756C202.178 108.756 202.071 108.72 201.983 108.648C201.903 108.584 201.855 108.493 201.839 108.373C201.831 108.261 201.855 108.142 201.911 108.014L202.725 106.172V106.626L200.463 101.362C200.408 101.226 200.388 101.103 200.404 100.991C200.42 100.879 200.471 100.788 200.559 100.716C200.655 100.644 200.782 100.608 200.942 100.608C201.078 100.608 201.185 100.64 201.265 100.704C201.345 100.768 201.421 100.879 201.492 101.039L203.371 105.669H203.036L204.95 101.039C205.014 100.879 205.09 100.768 205.177 100.704C205.265 100.64 205.385 100.608 205.536 100.608C205.672 100.608 205.776 100.644 205.847 100.716C205.927 100.788 205.975 100.879 205.991 100.991C206.007 101.103 205.983 101.222 205.919 101.35L202.904 108.325C202.824 108.493 202.741 108.604 202.653 108.66C202.573 108.724 202.457 108.756 202.306 108.756Z" fill="white"/>
<g clip-path="url(#clip1_263_1346)">
<path d="M221.506 125.654V125.855H220.87V127.571H220.609V125.855H219.973V125.654H221.506Z" fill="#006CD2"/>
<path d="M221.688 127.571V125.654H222.02L222.762 127.253L223.49 125.654H223.807V127.571H223.574V125.998L222.856 127.571H222.65L221.921 125.998V127.571H221.688Z" fill="#006CD2"/>
<path d="M156.197 129.837C156.197 134.251 158.191 136.458 162.178 136.458C166.081 136.458 168.033 134.251 168.033 129.837C168.033 125.483 166.081 123.307 162.178 123.307C158.191 123.307 156.197 125.483 156.197 129.837ZM153.967 129.905C153.967 124.363 156.704 121.592 162.178 121.592C167.568 121.592 170.263 124.363 170.263 129.905C170.263 135.417 167.568 138.173 162.178 138.173C156.704 138.173 153.967 135.417 153.967 129.905Z" fill="#006CD2"/>
<path d="M172.308 138.059V126.051H173.737L174.115 127.584C175.167 126.562 176.432 126.051 177.911 126.051V127.812C176.478 127.812 175.315 128.319 174.423 129.333V138.059H172.308Z" fill="#006CD2"/>
<path d="M181.329 126.051V138.059H179.213V126.051H181.329ZM181.329 121.706V123.707H179.213V121.706H181.329Z" fill="#006CD2"/>
<path d="M191.973 128.087C191.249 127.904 190.353 127.812 189.286 127.812C186.732 127.812 185.455 129.196 185.455 131.963C185.455 134.807 186.663 136.229 189.08 136.229C190.178 136.229 191.142 136.023 191.973 135.611V128.087ZM194.089 138.059C194.089 140.956 192.248 142.404 188.566 142.404C187.087 142.404 185.775 142.213 184.632 141.832V140.117C185.798 140.498 187.117 140.689 188.588 140.689C190.845 140.689 191.973 139.812 191.973 138.059V137.487C191.074 137.868 190.106 138.059 189.069 138.059C185.272 138.059 183.374 136.034 183.374 131.986C183.374 128.03 185.375 126.051 189.377 126.051C191.001 126.051 192.572 126.215 194.089 126.543V138.059Z" fill="#006CD2"/>
<path d="M201.429 126.051C204.844 126.051 206.552 127.74 206.552 131.117C206.552 131.597 206.517 132.112 206.449 132.661H198.021C198.021 135.116 199.454 136.343 202.321 136.343C203.685 136.343 204.897 136.191 205.957 135.886V137.601C204.897 137.906 203.609 138.059 202.092 138.059C197.968 138.059 195.905 136.012 195.905 131.918C195.905 128.007 197.746 126.051 201.429 126.051ZM198.021 130.9H204.516C204.471 128.796 203.441 127.744 201.429 127.744C199.294 127.744 198.158 128.796 198.021 130.9Z" fill="#006CD2"/>
<path d="M208.345 138.059V126.051H209.775L210.152 127.584C211.38 126.562 212.729 126.051 214.2 126.051C217.196 126.051 218.695 127.542 218.695 130.523V138.059H216.579V130.488C216.579 128.704 215.691 127.812 213.915 127.812C212.702 127.812 211.551 128.319 210.461 129.333V138.059H208.345Z" fill="#006CD2"/>
<path d="M142 119.657C142 118.733 142.749 117.984 143.673 117.984H149.249C150.173 117.984 150.922 118.733 150.922 119.657V125.233C150.922 126.157 150.173 126.906 149.249 126.906H143.673C142.749 126.906 142 126.157 142 125.233V119.657Z" fill="#006CD2"/>
</g>
<g clip-path="url(#clip2_263_1346)">
<path d="M287.238 118.335V115.492L296.611 119.263V121.584L287.238 125.356V122.454L292.71 120.424L287.238 118.335Z" fill="#A100FF"/>
<path d="M235.483 140.441C233.503 140.441 231.873 139.455 231.873 137.25V137.134C231.873 134.465 234.202 133.537 237.054 133.537H238.393V133.014C238.393 131.912 237.928 131.274 236.763 131.274C235.715 131.274 235.191 131.854 235.133 132.666H232.222C232.455 130.229 234.376 129.069 236.938 129.069C239.558 129.069 241.479 130.171 241.479 132.898V140.209H238.51V138.933C237.928 139.745 236.938 140.441 235.483 140.441ZM238.393 136.612V135.567H237.171C235.657 135.567 234.9 135.974 234.9 136.96V137.076C234.9 137.83 235.366 138.352 236.414 138.352C237.462 138.294 238.393 137.714 238.393 136.612ZM248.407 140.441C245.379 140.441 243.167 138.585 243.167 134.871V134.697C243.167 130.984 245.496 129.011 248.407 129.011C250.91 129.011 252.948 130.287 253.181 133.131H250.27C250.095 132.086 249.513 131.39 248.465 131.39C247.184 131.39 246.253 132.434 246.253 134.581V134.929C246.253 137.134 247.068 138.12 248.465 138.12C249.513 138.12 250.27 137.366 250.444 136.148H253.239C253.064 138.701 251.376 140.441 248.407 140.441ZM259.817 140.441C256.79 140.441 254.578 138.585 254.578 134.871V134.697C254.578 130.984 256.906 129.011 259.817 129.011C262.321 129.011 264.358 130.287 264.591 133.131H261.68C261.506 132.086 260.923 131.39 259.876 131.39C258.595 131.39 257.663 132.434 257.663 134.581V134.929C257.663 137.134 258.478 138.12 259.876 138.12C260.923 138.12 261.68 137.366 261.855 136.148H264.649C264.475 138.701 262.786 140.441 259.817 140.441ZM271.286 140.441C268.142 140.441 265.988 138.585 265.988 134.929V134.697C265.988 131.042 268.259 129.011 271.228 129.011C273.964 129.011 276.235 130.52 276.235 134.175V135.509H269.074C269.19 137.482 270.064 138.236 271.344 138.236C272.509 138.236 273.149 137.598 273.382 136.844H276.235C275.885 138.875 274.139 140.441 271.286 140.441ZM269.132 133.479H273.207C273.149 131.854 272.392 131.158 271.17 131.158C270.238 131.216 269.365 131.738 269.132 133.479ZM278.098 129.301H281.183V130.926C281.707 129.881 282.813 129.069 284.501 129.069C286.481 129.069 287.82 130.287 287.82 132.898V140.209H284.734V133.363C284.734 132.086 284.21 131.506 283.104 131.506C282.056 131.506 281.183 132.144 281.183 133.537V140.209H278.098V129.301ZM293.467 125.994V129.301H295.563V131.564H293.467V136.728C293.467 137.54 293.816 137.946 294.573 137.946C295.039 137.946 295.33 137.888 295.621 137.772V140.151C295.272 140.267 294.631 140.383 293.874 140.383C291.487 140.383 290.381 139.281 290.381 137.076V131.564H289.101V129.301H290.381V127.27L293.467 125.994ZM307.09 140.209H304.062V138.585C303.538 139.629 302.491 140.441 300.86 140.441C298.881 140.441 297.426 139.223 297.426 136.67V129.301H300.511V136.264C300.511 137.54 301.035 138.12 302.083 138.12C303.131 138.12 304.004 137.424 304.004 136.09V129.301H307.09V140.209ZM309.36 129.301H312.446V131.332C313.086 129.881 314.134 129.185 315.764 129.185V132.202C313.668 132.202 312.446 132.84 312.446 134.639V140.267H309.36V129.301ZM321.993 140.441C318.85 140.441 316.696 138.585 316.696 134.929V134.697C316.696 131.042 318.966 129.011 321.935 129.011C324.671 129.011 326.942 130.52 326.942 134.175V135.509H319.839C319.956 137.482 320.829 138.236 322.11 138.236C323.274 138.236 323.915 137.598 324.147 136.844H327C326.534 138.875 324.846 140.441 321.993 140.441ZM319.781 133.479H323.915C323.856 131.854 323.099 131.158 321.877 131.158C320.945 131.216 320.072 131.738 319.781 133.479Z" fill="white"/>
</g>
<defs>
<clipPath id="clip0_263_1346">
<rect width="326.386" height="86" fill="white" transform="translate(0.638554)"/>
</clipPath>
<clipPath id="clip1_263_1346">
<rect width="81.8075" height="24.9257" fill="white" transform="translate(142 117.984)"/>
</clipPath>
<clipPath id="clip2_263_1346">
<rect width="95.127" height="24.9491" fill="white" transform="translate(231.873 115.492)"/>
</clipPath>
</defs>
</svg>
